<?xml version="1.0" encoding="UTF-8" standalone="no"?>
<svg
   xmlns:dc="http://purl.org/dc/elements/1.1/"
   xmlns:cc="http://creativecommons.org/ns#"
   xmlns:rdf="http://www.w3.org/1999/02/22-rdf-syntax-ns#"
   xmlns:svg="http://www.w3.org/2000/svg"
   xmlns="http://www.w3.org/2000/svg"
   viewBox="0 0 314.66666 202.66667"
   height="202.66667"
   width="314.66666"
   xml:space="preserve"
   id="svg2"
   version="1.1"><metadata
     id="metadata8"><rdf:RDF><cc:Work
         rdf:about=""><dc:format>image/svg+xml</dc:format><dc:type
           rdf:resource="http://purl.org/dc/dcmitype/StillImage" /></cc:Work></rdf:RDF></metadata><defs
     id="defs6" /><g
     transform="matrix(1.3333333,0,0,-1.3333333,0,202.66667)"
     id="g10"><g
       transform="scale(0.1)"
       id="g12"><path
         id="path14"
         style="fill:#ee3a85;fill-opacity:1;fill-rule:evenodd;stroke:none"
         d="m 1545.35,981.172 c -3.63,-0.313 -6.99,-0.82 -10,-1.481 -2.65,-0.671 -4.14,-1.171 -4.49,-1.492 0.35,0.321 2.34,1.641 6.02,3.992 3.67,1.989 8.82,2.5 15.5,1.481 6.33,-1.332 10.67,-2.813 12.97,-4.492 2.03,-1.641 1.84,-2.809 -0.47,-3.481 -2.69,-0.347 -5.66,0.473 -9.02,2.5 -3.01,2 -6.48,2.973 -10.51,2.973 m -82.5,104.028 c -0.31,-0.36 -1.13,-1.53 -2.5,-3.52 -0.31,0.66 -0.47,1.17 -0.47,1.52 1.64,0.98 2.66,1.64 2.97,2 m 4.03,-0.51 c 0.66,-0.35 0,-2.5 -2,-6.49 -1.36,-1.68 -2.69,-3.36 -4.02,-5 -0.31,1.64 -0.51,3.17 -0.51,4.5 1.68,1.32 3.17,2.81 4.53,4.49 1.33,1.33 2,2.15 2,2.5 m 413.98,-421.991 c 66.99,84.641 113.67,166.832 140,246.481 26.68,79.691 36.52,153.83 29.49,222.5 -6.64,69.02 -26.48,129.84 -59.49,182.5 -33.01,52.34 -75.31,94.02 -126.99,125 -51.99,30.66 -109.65,47.66 -173.01,51.02 -63.67,3.32 -129.49,-10 -197.5,-40 63.01,38.32 124.69,60.82 185,67.5 60.35,6.32 116.84,-0.36 169.49,-20 52.35,-20 98.01,-50.51 137.03,-91.53 38.99,-40.66 68.48,-89.14 88.48,-145.47 20,-56.01 27.66,-117.18 23.01,-183.51 -4.34,-66.02 -23.83,-134.178 -58.52,-204.491 -34.65,-70.668 -86.99,-140.668 -156.99,-210 M 294.379,1257.7 c 84.332,-23.36 162.34,-37.19 233.98,-41.53 71.993,-4.33 138.832,-1.64 200.512,8.01 61.68,9.34 119.488,23.01 173.508,41.02 54.34,17.65 105.821,37.14 154.501,58.47 48.98,21.02 96.48,41.02 142.5,60 45.97,19.03 91.83,34.53 137.5,46.53 45.97,11.64 92.81,16.99 140.5,15.97 -46.01,-8.32 -93.67,-22.81 -143,-43.47 -49.34,-20.67 -100.16,-44.18 -152.5,-70.51 -52,-26.33 -105.67,-52.35 -161.02,-78.01 -55.001,-25.66 -111.481,-47.66 -169.489,-65.98 -58.012,-18.36 -117.351,-29.68 -178.012,-34.02 -60.308,-4.65 -122.148,0.86 -185.507,16.52 -63.321,15.67 -127.813,44.65 -193.473,87 m 415,-486.528 c 43.98,-21.992 94.332,-41.332 150.973,-57.973 56.679,-16.359 116.527,-29.179 179.528,-38.508 62.97,-9.339 125.98,-13.992 188.99,-13.992 63.32,-0.347 123.32,4.813 180,15.473 56.33,10.668 106.48,27.5 150.51,50.508 43.67,23.359 77.65,53.672 101.99,91.019 -8.67,-44.34 -28.01,-81.679 -58.01,-112 -30.31,-30.347 -68.16,-54.019 -113.48,-71.008 -45.66,-17.351 -96.17,-28.671 -151.52,-33.992 -55.31,-5.347 -112.5,-5.187 -171.48,0.473 -59.03,5.348 -117,15.508 -174.028,30.508 -56.641,15 -109.493,34.34 -158.473,58.011 -48.68,23.321 -90.359,50.508 -125,81.481 m 750.971,310.508 c -0.31,0.66 -0.47,1.17 -0.47,1.52 1.64,0.98 2.66,1.64 2.97,2 -0.31,-0.36 -1.13,-1.53 -2.5,-3.52 m 6.53,3.01 c 0.66,-0.35 0,-2.5 -2,-6.49 -1.36,-1.68 -2.69,-3.36 -4.02,-5 -0.31,1.64 -0.51,3.17 -0.51,4.5 1.68,1.32 3.17,2.81 4.53,4.49 1.33,1.33 2,2.15 2,2.5 m 28,345 c -35.35,-6.68 -73.67,-19.34 -115,-38.01 -41.36,-18.32 -85,-40 -131.01,-65 -46.33,-24.65 -94.85,-50 -145.51,-75.98 -50.66,-26.01 -103.32,-49.84 -158.008,-71.52 -54.332,-21.64 -110.153,-38.67 -167.5,-50.98 -57.301,-12.34 -115.973,-17.34 -175.973,-15 -59.688,2.31 -120.16,14.65 -181.527,37 -61.641,22.34 -123.633,57.34 -185.973,105 12.652,-48.36 37.652,-96.02 75,-143.01 36.992,-46.68 83.672,-91.17 140,-133.518 55.973,-42.301 118.32,-80.973 186.992,-115.973 68.981,-35 141.328,-65 216.988,-90 75.661,-25 151.841,-43.359 228.521,-55 76.64,-12 150.66,-16.179 221.99,-12.5 71.68,3.981 137.65,17.141 198.01,39.492 60.66,22.34 112.65,55.508 155.97,99.489 -0.66,1.992 -1.48,4.019 -2.5,6.019 -13.32,-6.019 -25.97,-9.687 -37.97,-11.019 -15.35,-1.641 -27.34,-1.481 -36.01,0.511 -8.67,1.989 -15.16,5.149 -19.49,9.489 -4.69,4.34 -8.17,8.832 -10.51,13.519 -2.66,4.641 -4.65,9.141 -6.02,13.473 -1.33,4.687 -2.97,9.34 -5,14.027 4.69,-1.019 10.51,-1.179 17.5,-0.508 12.35,1.68 22.7,5.149 31.02,10.508 8.67,5.313 15.15,10.313 19.49,15 4.34,5 6.52,7.653 6.52,8 0,0 -2.03,0.16 -6.01,0.473 -3.99,0.668 -9.34,1.367 -16.02,2.027 -12.3,1.641 -24.49,5.321 -36.48,10.981 -6.02,2.66 -11.49,3.832 -16.49,3.519 -5,-0.359 -8.67,-1.527 -11.01,-3.519 -3.99,-3.321 -7.35,-3.008 -10,1.019 -1.99,1.641 -4.49,3.16 -7.5,4.492 -2.66,1.008 -5,1.329 -6.99,1.008 0,0 -0.16,0 -0.51,0 -1.33,2.313 -2.85,4.653 -4.49,7 -0.36,0.66 -0.67,1.172 -1.02,1.481 -4.65,6.679 -10.31,16.519 -16.99,29.492 -6.99,13.008 -12.85,26.838 -17.5,41.528 -3.67,13.32 -5,23.47 -3.99,30.5 0.98,6.64 1.33,12.97 0.98,18.99 0.66,0.66 1.52,1.33 2.5,1.99 1.68,1.68 3.52,3.67 5.51,6.02 1.99,2.34 3.01,3.67 3.01,3.98 0.31,-0.66 -0.67,-3.16 -3.01,-7.5 -1.02,-1.99 -2.15,-3.83 -3.52,-5.51 -1.33,-1.99 -1.99,-2.97 -1.99,-2.97 0.35,0.32 2.34,2.31 6.02,5.98 1.64,1.99 3.16,4.02 4.49,6.02 1.33,1.99 1.99,3.16 1.99,3.47 0,-0.66 -0.98,-3.32 -3.01,-7.97 -2.3,-4.33 -3.63,-6.52 -3.98,-6.52 0,0 1.83,1.68 5.51,5 1.99,1.99 3.82,4.34 5.5,6.99 2,3.01 2.97,4.69 2.97,5 0.35,-0.31 0,-1.99 -0.97,-5 -1.02,-1.99 -2.19,-3.83 -3.52,-5.47 -0.98,-2.03 -1.48,-3.16 -1.48,-3.51 0,0 0.5,0.66 1.48,1.99 1.33,1.02 2.66,2.34 4.02,4.02 1.33,1.64 2.66,3.48 3.99,5.47 1.33,2.03 1.99,3.17 1.99,3.52 0.35,-0.35 -0.16,-1.99 -1.48,-5 -0.67,-1.33 -1.68,-3.01 -3.01,-5 -1.02,-1.99 -1.68,-3.01 -1.99,-3.01 0.66,0.35 2.65,2.19 5.97,5.51 1.68,1.99 3.36,3.98 5,6.01 1.68,2.31 2.5,3.48 2.5,3.48 0,0 -0.15,-0.82 -0.47,-2.5 -0.66,-1.33 -1.52,-3.01 -2.5,-5 -2.03,-3.98 -3.16,-6.17 -3.51,-6.48 0,0 0.82,0.66 2.5,1.99 1.33,1.01 2.85,2.5 4.49,4.49 1.68,1.99 3.01,3.83 4.02,5.51 0.98,1.68 1.49,2.5 1.49,2.5 0.35,-0.35 0.15,-1.84 -0.51,-4.49 -0.66,-1.33 -1.33,-2.66 -1.99,-4.03 -0.67,-1.33 -1.02,-2.15 -1.02,-2.5 0.35,0 1.68,1.53 4.03,4.53 0.97,1.33 1.99,2.97 3,5 0.98,2.31 1.64,3.99 2,5 1.32,0 1.99,0 1.99,0 0,0 -0.67,0.47 -1.99,1.49 -1.33,1.01 -3.52,1.33 -6.53,1.01 -2.97,-0.35 -7.15,-1.01 -12.5,-2.03 -5,-1.33 -10.82,-1.83 -17.5,-1.48 -3.98,0.35 -6.64,1.01 -7.97,1.99 -1.68,1.02 -2.69,1.84 -3,2.5 0,1.68 -0.16,2.85 -0.51,3.52 -0.67,0.97 -1.68,2.65 -3.01,5 -1.99,2.65 -4.49,6.83 -7.5,12.5 -2.34,4.33 -4.49,8.32 -6.48,11.99 -2,3.98 -3.52,7.34 -4.5,10 -2.03,5.66 -3.36,9.65 -4.02,11.99 5,-1.33 11.02,-3.48 18.01,-6.48 6.68,-3.01 11.99,-5.86 16.01,-8.52 2.97,-2.34 6.33,-4.34 10,-5.98 3.64,-1.36 6.64,-2.18 8.99,-2.5 0,0.32 -1.17,2.66 -3.52,7 -2.3,3.98 -5.66,7.34 -10,10 -4.65,2.34 -10.47,5 -17.5,8 -6.64,2.97 -11.64,5.16 -15,6.49 -2.97,0.66 -5.47,1.01 -7.5,1.01 -0.66,2.97 -1.48,9.5 -2.5,19.5 -0.97,9.64 -1.64,20.97 -1.99,33.98 -0.66,13.01 -0.66,25.86 0,38.52 1.02,13 3.01,23.98 6.02,33 5,-11.36 15.66,-23.86 31.99,-37.5 16.33,-13.67 35.51,-27.85 57.5,-42.5 21.99,-14.33 43.98,-28.36 66.01,-42.03 -7.03,-1.99 -11.83,-3.83 -14.53,-5.47 -5.66,-3.36 -9.8,-7.5 -12.5,-12.5 -2.65,-4.68 -3.98,-7.34 -3.98,-8 1.99,0 5.15,0.97 9.49,3 4.34,2 8.16,4.14 11.52,6.49 0.98,1.01 3.64,2.15 7.97,3.51 4.03,1.64 9.03,3.17 15,4.5 24.69,-15.67 47.19,-34.85 67.5,-57.5 -3.32,0 -6.99,-0.51 -10.97,-1.53 -4.34,-1.64 -9.85,-3.32 -16.53,-5 -6.64,-1.33 -15,-2.15 -25,-2.5 -10,0 -17.3,1.02 -21.99,3.01 -5,1.68 -8.16,3.16 -9.49,4.49 -1.68,1.02 -3.32,1.37 -5,1.02 -1.33,-0.67 -1.99,-1.02 -1.99,-1.02 0.66,0.35 1.83,0 3.47,-0.97 1.37,-1.33 2.85,-2.66 4.53,-4.03 0.32,-0.31 0.47,-0.47 0.47,-0.47 -0.97,-1.01 -2.3,-2.03 -3.98,-3 -3.32,-2 -5.16,-3.01 -5.51,-3.01 0,0 0.66,0 1.99,0 1.37,0.35 2.7,0.82 4.03,1.48 2.65,1.02 4.33,1.84 5,2.5 -0.36,-0.66 -2.35,-2.65 -6.02,-5.97 -4.34,-3.01 -6.64,-4.69 -6.99,-5 0,0.31 1.17,0.82 3.51,1.48 2,1.02 3.99,1.99 5.98,3.01 3.67,1.99 5.66,3.16 6.02,3.51 0,0 -0.51,-0.66 -1.53,-2.03 -0.97,-1.33 -2.3,-2.81 -3.98,-4.49 -1.99,-1.33 -3.83,-2.66 -5.51,-3.98 -1.99,-1.02 -3.01,-1.68 -3.01,-2 0,0 1.17,0.67 3.52,2 2.34,0.97 4.49,2.14 6.48,3.47 2.03,1.37 3.67,2.5 5,3.52 1.37,1.33 2.03,1.99 2.03,1.99 0,0 -0.86,-0.98 -2.5,-3.01 -2.03,-1.64 -4.02,-3.47 -6.01,-5.47 -5,-4.02 -7.66,-6.17 -8.01,-6.52 0.35,0.35 1.99,1.33 5,3.01 3.36,1.99 6.17,3.67 8.52,5 3,2.34 5,4.18 5.97,5.51 -0.66,-1.68 -2.15,-4.18 -4.49,-7.5 -1.64,-2 -3.01,-3.68 -3.98,-5 -1.33,-1.68 -2,-2.5 -2,-2.5 0.32,0.31 1.64,1.64 3.99,3.98 2.65,1.99 4.84,4.02 6.48,6.02 1.02,1.32 1.84,2.5 2.5,3.47 0,0 0.2,-0.15 0.51,-0.47 -0.66,-2.34 -1.84,-5.19 -3.48,-8.51 -3.36,-5 -5.19,-7.5 -5.5,-7.5 0.31,0 1.17,0.51 2.5,1.48 1.32,1.37 2.81,2.85 4.49,4.53 1.99,2.66 3.67,5.47 5,8.48 0.35,0 0.66,0 1.01,0 0,-1.64 -0.5,-3.98 -1.52,-6.99 -0.98,-3.01 -2.15,-5.51 -3.48,-7.5 -1.36,-1.99 -2.03,-3.01 -2.03,-3.01 0,0 0.86,1.17 2.5,3.52 1.68,1.99 3.17,4.14 4.53,6.48 1.33,1.99 2.5,4.18 3.48,6.52 0.35,-0.35 0.86,-0.5 1.52,-0.5 0.32,-1.68 0.16,-3.52 -0.5,-5.51 -0.67,-3.01 -1.68,-5.82 -3.01,-8.52 -1.33,-2.65 -1.99,-4.14 -1.99,-4.49 0,0.35 0.97,1.84 3,4.49 1.64,2.7 2.97,5.2 3.99,7.5 0.66,2.35 1.33,4.34 1.99,6.02 0,0 0.16,0 0.51,0 0.35,-2.35 0.35,-5.35 0,-8.99 -0.35,-6.36 -0.51,-9.68 -0.51,-10 0,0 0.35,1.49 1.02,4.5 0.66,2.65 1.17,5.31 1.48,8 0.35,2.66 0.66,4.65 1.02,5.98 0.31,0 0.66,0 0.97,0 0,-2.34 0,-4.34 0,-5.98 -0.31,-1.68 -0.47,-3.36 -0.47,-5 0,-1.68 0,-2.5 0,-2.5 0,0 0.32,1.14 0.98,3.48 0.35,1.99 0.66,4.02 1.02,6.02 0.31,1.64 0.66,3 0.97,3.98 0.35,0 0.67,0 1.02,0 0.35,-1.64 0.66,-3.83 1.01,-6.48 0.32,-2.66 0.47,-5.16 0.47,-7.5 0.35,-2 0.51,-3.17 0.51,-3.52 0,0.35 0.16,1.84 0.51,4.49 0.35,2.7 0.66,5.51 1.01,8.52 0,2.34 0.16,3.98 0.47,5 0.35,0.35 0.67,0.51 1.02,0.51 1.01,-3.01 1.99,-6.33 3.01,-10 1.32,-6.33 1.99,-9.5 1.99,-9.5 0,0.32 0,1.84 0,4.5 0,3 0,5.82 0,8.47 0,3.01 0,5.51 0,7.5 0.35,0 0.51,0 0.51,0 1.32,-2.65 2.5,-6.13 3.47,-10.47 1.68,-5 2.7,-7.34 3.01,-7.03 0,0.35 -0.31,1.84 -0.98,4.53 -0.35,2.66 -0.66,5 -1.01,7 0,3.98 0.15,6.48 0.51,7.5 0,-0.36 0.31,-1.53 0.97,-3.52 0.67,-1.99 1.37,-3.83 2.03,-5.51 1.33,-1.99 2.82,-3.63 4.5,-5 1.64,-1.33 2.5,-1.99 2.5,-1.99 0,0 -0.67,1.17 -2,3.52 -1.01,1.99 -2.03,3.98 -3,5.97 -0.67,1.68 -1.18,3.36 -1.53,5 -0.31,1.68 -0.47,2.7 -0.47,3.01 0,-0.31 0,-0.31 0,0 0.32,-0.31 1.33,-1.48 2.97,-3.48 1.37,-1.68 3.01,-3.36 5,-5 3.67,-3.36 5.67,-4.84 6.02,-4.53 0,0 -0.82,1.02 -2.5,3.01 -1.33,1.99 -2.5,3.83 -3.52,5.51 -1.64,3.67 -2.5,5.51 -2.5,5.51 0,0 1.02,-0.67 3.01,-2 1.68,-1.68 3.52,-3.16 5.51,-4.53 1.99,-1.33 3.83,-2.3 5.51,-2.97 1.64,-0.66 2.65,-1.01 3,-1.01 -0.35,0 -1.36,0.82 -3,2.5 -2,1.33 -3.68,3.01 -5,5 -2.35,3.32 -3.52,5.51 -3.52,6.48 0,0.35 0,0.51 0,0.51 0.35,-0.31 1.33,-1.17 3.01,-2.5 1.33,-1.33 2.85,-2.5 4.49,-3.48 1.33,-1.01 2.66,-1.68 4.02,-2.03 0.98,-0.66 1.64,-0.97 2,-0.97 -0.36,0 -1.02,0.66 -2,1.99 -1.36,1.01 -2.69,2.34 -4.02,3.98 -2.34,2.7 -3.48,4.18 -3.48,4.53 0.32,-0.35 2,-1.36 5,-3 3.32,-1.68 5.16,-2.35 5.47,-2 -0.66,0.32 -1.99,1.33 -3.98,2.97 -1.68,1.68 -2.66,3.17 -3.01,4.53 0,-0.35 0,-0.35 0,0 1.33,-1.01 3.36,-2.18 6.02,-3.51 3.32,-1.02 5.31,-1.33 5.97,-1.02 -0.31,0 -1.33,0.51 -2.97,1.53 -1.36,0.66 -2.5,1.32 -3.51,1.99 -1.02,0.66 -1.84,1.33 -2.5,1.99 0.35,0.35 0.66,0.51 1.01,0.51 1.64,-0.67 3.64,-1.33 5.98,-1.99 2.66,-0.67 4.18,-0.67 4.49,0 0,0 -0.66,0.31 -1.99,0.97 -1.33,0.35 -2.66,0.86 -3.98,1.53 -0.36,0.31 -0.67,0.5 -1.02,0.5 2.34,0.98 4.49,1.64 6.52,2 13.32,-15.36 25.16,-34.69 35.47,-58.01 10.67,-23.01 18.01,-48.991 22.03,-78.01 3.99,-28.981 2.97,-59.649 -3,-91.989 -7.35,-39.652 -19.5,-77.152 -36.53,-112.5 -17.3,-35.351 -41.83,-66.992 -73.47,-95 -31.68,-27.66 -73.01,-50.16 -124.03,-67.5 -50.66,-17.351 -113.16,-27.851 -187.5,-31.492 -74.33,-3.359 -162.65,1.641 -265,15 106.68,-36.008 203.67,-56.679 291.02,-62.027 86.99,-5.66 164.84,0.508 233.51,18.519 68.64,18.008 128.64,43.981 180,78.008 51.64,33.672 95.32,71.832 130.98,114.492 35.66,42.649 63.83,86.008 84.49,130 21.02,43.981 35.2,85 42.5,123.008 11.68,60.311 11.84,118.471 0.51,174.491 -10.98,56.01 -31.64,106.68 -61.99,151.99 -30.67,45.35 -68.67,81.99 -113.99,110 -45.35,28.01 -96.17,44.18 -152.5,48.52 -56.68,4.33 -116.68,-6.68 -180,-33.01" /><path
         id="path16"
         style="fill:#414042;fill-opacity:1;fill-rule:nonzero;stroke:none"
         d="M 355.43,208.121 C 355.43,149.449 339.262,103.48 306.988,70.1602 283.949,46.4805 253.629,30.1992 216.051,21.25 198.012,16.8789 181.68,14.6914 166.988,14.6914 H 4.96094 v 13.4297 c 9.37886,0 17.80856,1.6484 25.30856,5 7.5,3.3281 11.25,8.8281 11.25,16.5703 V 323.121 c 0,6.328 -4.289,11.18 -12.8086,14.539 -8.4414,3.32 -18.0507,5 -28.7499625,5 v 14.059 H 209.02 c 13.32,0 29.3,-3.52 47.968,-10.469 27.274,-10.43 49.102,-24.961 65.473,-43.59 21.949,-25.32 32.969,-56.84 32.969,-94.539 z m -50,-19.371 c 0,54.57 -15.469,94.219 -46.41,118.91 -25,20 -59.84,30 -104.532,30 -21.679,0 -37.457,-0.39 -47.34,-1.101 -9.8082,-0.618 -15.1597,-3.079 -16.0972,-7.34 V 39.2188 c 0.6289,-2.418 7.4297,-4.3399 20.4692,-5.7774 13.011,-1.4922 25.82,-2.1914 38.441,-2.1914 46.019,0 82.539,12.1094 109.527,36.4102 30.633,27.6914 45.942,68.0388 45.942,121.0898 z m 216.172,134.371 -82.973,-51.402 h -18.43 l 77.961,77.031 c 3.012,2.891 6.641,4.371 10.942,4.371 4.687,0 8.988,-1.832 12.968,-5.461 4.059,-3.68 6.09,-7.969 6.09,-12.969 0,-4.382 -2.18,-8.242 -6.558,-11.57 z" /><path
         id="path18"
         style="fill:#414042;fill-opacity:1;fill-rule:nonzero;stroke:none"
         d="m 813.711,86.25 h 14.527 l -9.527,-71.5586 h -255 v 13.4297 c 8.949,-0.9297 17.34,0.8594 25.16,5.4687 7.891,4.6915 11.867,11.0196 11.867,19.0704 V 324.691 c 0,6.329 -7.5,11.168 -22.5,14.528 -5,0.941 -12.5,2.07 -22.5,3.441 v 12.961 h 138.91 V 343.75 c -14.296,-1.371 -24.769,-3.051 -31.41,-5 -11.679,-3.359 -17.5,-8.199 -17.5,-14.531 V 53.75 c 0,-5 1.453,-9.5312 4.383,-13.5898 3,-3.9883 7.027,-5.9414 12.027,-5.9414 h 92.973 c 16.008,0 29.059,4.6093 39.059,13.9023 10,9.3789 16.48,22.0781 19.531,38.1289 z" /><path
         id="path20"
         style="fill:#414042;fill-opacity:1;fill-rule:nonzero;stroke:none"
         d="m 1128.4,86.25 -5,-71.5586 H 867.301 v 13.4297 c 1.648,-0.6211 4.539,-0.9297 8.597,-0.9297 8.321,0 15.821,2.6484 22.5,7.9688 6.641,5.3086 10,12.1093 10,20.4609 V 315.621 c 0,11.328 -5.16,18.828 -15.468,22.5 -4.059,1.328 -14.918,2.859 -32.5,4.539 v 12.961 h 257.97 l 2.97,-3.902 -7.03,-58.598 h -14.54 v 26.098 c 0,5.621 -1.48,9.761 -4.37,12.5 -4.06,3.633 -11.09,5.472 -21.09,5.472 H 955.43 V 200.16 l 2.968,-0.941 h 99.532 c 7.27,0 12.07,7.109 14.37,21.402 0.71,4.688 1.1,11.879 1.1,21.57 h 12.97 V 141.719 h -12.97 c 0,8.633 -0.39,14.922 -1.1,18.902 -1.99,12.699 -6.79,19.07 -14.37,19.07 h -99.532 l -2.968,-4.07 V 34.2188 h 125 c 13.95,0 24.1,8.6328 30.47,25.9414 1.95,5.6992 3.79,14.4101 5.47,26.0898 z" /><path
         id="path22"
         style="fill:#414042;fill-opacity:1;fill-rule:nonzero;stroke:none"
         d="M 1551.99,355.621 V 342.66 c -1.68,0.699 -3.51,1.09 -5.47,1.09 -2.61,0 -4.61,0 -5.93,0 -8.68,0 -15.9,-1.871 -21.72,-5.629 -5.86,-3.672 -8.75,-8.98 -8.75,-15.93 V 6.71875 L 1468.09,13.75 1234.49,301.719 V 46.7188 c 0,-6.3672 3.75,-11.168 11.25,-14.379 7.5,-3.121 16.1,-4.6796 25.78,-4.6796 2.7,0.3086 4.73,0.4609 6.1,0.4609 V 14.6914 h -110.63 v 13.4297 c 2.07,-0.3125 5.39,-0.4609 10,-0.4609 10,0 18.48,1.6406 25.47,5 7.07,3.3203 10.63,8.6679 10.63,16.0898 l -1.1,271.41 c 0,8 -4.76,13.75 -14.22,17.18 -9.49,3.519 -19.76,5.32 -30.78,5.32 v 12.961 h 84.06 L 1482.62,66.7188 V 322.191 c 0,7.688 -4.69,13.008 -14.07,15.93 -9.37,3.008 -19.68,4.539 -30.93,4.539 v 12.961 z" /><path
         id="path24"
         style="fill:#414042;fill-opacity:1;fill-rule:nonzero;stroke:none"
         d="M 1966.05,355.621 V 342.66 c -1.67,0.699 -3.51,1.09 -5.46,1.09 -2.62,0 -4.61,0 -5.94,0 -8.67,0 -15.9,-1.871 -21.72,-5.629 -5.86,-3.672 -8.75,-8.98 -8.75,-15.93 V 6.71875 L 1882.15,13.75 1648.55,301.719 V 46.7188 c 0,-6.3672 3.75,-11.168 11.25,-14.379 7.5,-3.121 16.1,-4.6796 25.79,-4.6796 2.69,0.3086 4.72,0.4609 6.09,0.4609 V 14.6914 h -110.63 v 13.4297 c 2.07,-0.3125 5.4,-0.4609 10,-0.4609 10,0 18.48,1.6406 25.47,5 7.07,3.3203 10.63,8.6679 10.63,16.0898 l -1.1,271.41 c 0,8 -4.76,13.75 -14.21,17.18 -9.5,3.519 -19.77,5.32 -30.79,5.32 v 12.961 h 84.07 L 1896.68,66.7188 V 322.191 c 0,7.688 -4.69,13.008 -14.06,15.93 -9.38,3.008 -19.69,4.539 -30.94,4.539 v 12.961 z" /><path
         id="path26"
         style="fill:#414042;fill-opacity:1;fill-rule:nonzero;stroke:none"
         d="m 2354.65,14.6914 h -127.03 v 13.4297 c 5.39,0 11.09,0.3203 17.03,0.9375 6.01,0.7109 12.69,2.7422 20,6.1016 1.33,2.3789 2.03,5.2304 2.03,8.5898 0,1.25 -0.31,2.5391 -0.94,3.9102 l -32.03,81.5588 h -140.47 l -28.59,-68.5979 c -1.99,-5.9297 -2.97,-11.4023 -2.97,-16.4023 3.63,-7.418 8.63,-11.9493 15,-13.5977 6.33,-1.6719 15,-2.5 25.94,-2.5 V 14.6914 h -111.88 v 13.4297 c 9.26,0 15.98,0.5078 20.16,1.5703 4.14,1.0078 8.44,4.2188 12.81,9.5274 L 2168.24,360.16 h 16.41 L 2315.74,52.6602 c 6.96,-16.3711 19.92,-24.5391 38.91,-24.5391 z m -130,134.0586 -60.47,144.371 -61.56,-144.371 z" /></g></g></svg>