<svg id="Capa_1" enable-background="new 0 0 512.097 512.097" height="256px" viewBox="0 0 512.097 512.097" width="256px" xmlns="http://www.w3.org/2000/svg"><g><g><path d="m490.478 271.048h-153.089l-10 24.997 177.174-10c.488-7.555-5.43-14.997-14.085-14.997z" fill="#d273b3"/><path d="m337.389 271.048h-314.889l-15 15c0 16.569 13.431 30 30 30h417.328c18.871 0 35.708-8.712 46.707-22.334 1.906-2.36 2.857-5.022 3.029-7.669h-167.175z" fill="#ca59a6"/><path d="m339.597 256.048h-317.097l-5 20 337.097-5c0-8.284-6.716-15-15-15z" fill="#ffd064"/><path d="m22.5 264.379v-8.331c-8.284 0-15 6.716-15 15v15h332.097c8.284 0 15-6.716 15-15h-87.707l-204.6-15-10 15h-23.121c-3.683 0-6.669-2.985-6.669-6.669z" fill="#ebb044"/><path d="m287.29 256.048-20-30 20-50v-168.5h-205l-10 248.5c17.155 17.155 17.155 44.97 0 62.125s-17.155 44.97 0 62.125 17.155 44.97 0 62.125-7.155 44.97 10 62.125h205c-17.155-17.155-17.155-44.97 0-62.125s17.155-44.97 0-62.125-17.155-44.97 0-62.125c17.156-17.155 17.156-44.969 0-62.125z" fill="#7f78bd"/><path d="m82.29 442.423c17.155-17.155 17.155-44.97 0-62.125s-17.155-44.97 0-62.125 17.155-44.97 0-62.125l205-30v-50h-205v-168.5h-20v248.5c17.155 17.155 17.155 44.97 0 62.125s-17.155 44.97 0 62.125 17.155 44.97 0 62.125-17.155 44.97 0 62.125h20c-17.155-17.155-17.155-44.969 0-62.125z" fill="#5f55ad"/><path d="m454.827 196.048h-417.327c-5.466 0-10.586 1.469-15 4.023l-10 35.977 492.063-10c-.172-2.647-1.124-5.307-3.028-7.666-11-13.621-27.836-22.334-46.708-22.334z" fill="#d273b3"/><path d="m22.5 200.072c-8.964 5.188-15 14.874-15 25.977l15 15h467.978c8.656 0 14.575-7.444 14.085-15h-482.063z" fill="#ca59a6"/><path d="m339.597 226.048h-317.097l-5 20 337.097-5c0-8.284-6.716-15-15-15z" fill="#ffd064"/><path d="m22.5 234.379v-8.331h-15v15c0 8.284 6.716 15 15 15h317.097c8.284 0 15-6.716 15-15h-325.428c-3.683 0-6.669-2.985-6.669-6.669z" fill="#ebb044"/><path d="m454.827 233.548c-3.099 0-6.052.627-8.739 1.761-1.134 2.687-4.761 8.64-4.761 11.739 0 12.426 10.074 22.5 22.5 22.5 3.099 0 9.052-3.627 11.739-4.761 1.134-2.687 1.761-5.64 1.761-8.739 0-12.426-10.073-22.5-22.5-22.5z" fill="#7f78bd"/><path d="m444.327 244.048c0-3.099.627-6.052 1.761-8.739-8.085 3.411-13.761 11.412-13.761 20.739 0 12.426 10.074 22.5 22.5 22.5 9.327 0 17.328-5.675 20.739-13.761-2.687 1.134-5.64 1.761-8.739 1.761-12.426 0-22.5-10.073-22.5-22.5z" fill="#5f55ad"/></g><g><path d="m287.291 512.048c-1.92 0-3.839-.732-5.304-2.197-9.713-9.713-15.063-22.628-15.063-36.366s5.35-26.652 15.063-36.366c6.881-6.88 10.67-16.029 10.67-25.759s-3.789-18.879-10.67-25.759c-9.713-9.713-15.063-22.628-15.063-36.366s5.35-26.652 15.063-36.366c13.384-13.384 14.116-35.062 2.025-49.322h-27.046c3.8 7.358 5.773 15.581 5.688 24.082-.137 13.54-5.485 26.271-15.061 35.847-14.204 14.204-14.204 37.315 0 51.519 20.052 20.052 20.052 52.679 0 72.731-14.204 14.204-14.204 37.315 0 51.519 2.929 2.929 2.929 7.678 0 10.606-2.929 2.929-7.678 2.929-10.606 0-9.714-9.713-15.063-22.628-15.063-36.366s5.35-26.652 15.063-36.366c6.88-6.88 10.669-16.029 10.669-25.759s-3.789-18.879-10.669-25.759c-20.052-20.052-20.052-52.679 0-72.731 13.383-13.384 14.115-35.063 2.024-49.322h-27.045c3.8 7.358 5.773 15.581 5.688 24.082-.136 13.54-5.484 26.271-15.061 35.847-11.063 11.063-13.837 27.909-6.903 41.919 1.837 3.712.317 8.211-3.395 10.048-3.714 1.837-8.211.317-10.048-3.395-9.79-19.781-5.876-43.563 9.74-59.179 13.383-13.384 14.115-35.063 2.024-49.322h-27.045c3.8 7.358 5.773 15.581 5.688 24.082-.136 13.54-5.484 26.271-15.061 35.847-14.204 14.204-14.204 37.315 0 51.519 20.052 20.052 20.052 52.679 0 72.731-14.204 14.204-14.204 37.315 0 51.519 2.929 2.929 2.929 7.678 0 10.606-2.929 2.929-7.678 2.929-10.606 0-9.714-9.713-15.063-22.628-15.063-36.366s5.35-26.652 15.063-36.366c14.204-14.204 14.204-37.315 0-51.519-9.714-9.713-15.063-22.628-15.063-36.366s5.35-26.652 15.063-36.366c13.383-13.384 14.115-35.063 2.024-49.322h-27.045c3.8 7.358 5.773 15.581 5.688 24.082-.136 13.54-5.484 26.271-15.061 35.847-6.88 6.88-10.67 16.029-10.67 25.759s3.79 18.879 10.67 25.759c20.052 20.052 20.052 52.679 0 72.731-6.88 6.88-10.67 16.029-10.67 25.759s3.79 18.879 10.67 25.759c2.929 2.929 2.929 7.678 0 10.606-2.929 2.929-7.678 2.929-10.606 0-9.714-9.713-15.063-22.628-15.063-36.366s5.35-26.652 15.063-36.366c14.204-14.204 14.204-37.315 0-51.519-9.714-9.713-15.063-22.628-15.063-36.366s5.35-26.652 15.063-36.366c13.383-13.384 14.115-35.063 2.024-49.322h-27.045c3.8 7.358 5.773 15.581 5.688 24.082-.136 13.54-5.484 26.271-15.061 35.847-14.204 14.204-14.204 37.315 0 51.519 20.052 20.052 20.052 52.679 0 72.731-14.204 14.204-14.204 37.315 0 51.519 2.929 2.929 2.929 7.678 0 10.606-2.929 2.929-7.678 2.929-10.606 0-20.052-20.052-20.052-52.679 0-72.731 14.204-14.204 14.204-37.315 0-51.519-16.79-16.789-19.521-42.395-8.195-62.053h-11.292c-20.678 0-37.5-16.822-37.5-37.5v-15c0-5.757 2.173-11.017 5.743-15-3.57-3.983-5.743-9.243-5.743-15v-15c0-20.678 16.822-37.5 37.5-37.5h17.291v-181c0-4.142 3.358-7.5 7.5-7.5s7.5 3.358 7.5 7.5v181h30v-181c0-4.142 3.358-7.5 7.5-7.5s7.5 3.358 7.5 7.5v181h30v-181c0-4.142 3.358-7.5 7.5-7.5s7.5 3.358 7.5 7.5v181h30v-61.887c0-4.142 3.358-7.5 7.5-7.5s7.5 3.358 7.5 7.5v61.887h30v-181c0-4.142 3.358-7.5 7.5-7.5s7.5 3.358 7.5 7.5v181h30v-181c0-4.142 3.357-7.5 7.5-7.5s7.5 3.358 7.5 7.5v181h60.807c4.143 0 7.5 3.358 7.5 7.5s-3.357 7.5-7.5 7.5h-318.098c-9.778 0-18.12 6.27-21.215 15h323.312c9.778 0 18.119 6.27 21.215 15h74.192c5.29-4.666 12.231-7.5 19.823-7.5s14.533 2.834 19.823 7.5h15.827c3.853 0 5.537-2.899 5.962-3.788.519-1.086 1.485-3.909-.741-6.666-10.029-12.422-24.926-19.546-40.871-19.546h-69.23c-4.143 0-7.5-3.358-7.5-7.5s3.357-7.5 7.5-7.5h69.23c20.5 0 39.65 9.157 52.541 25.123 5.187 6.421 6.185 15.065 2.605 22.556-3.632 7.6-11.102 12.321-19.496 12.321h-6.6c.619 2.398.949 4.911.949 7.5s-.33 5.102-.949 7.5h6.6c8.395 0 15.864 4.721 19.496 12.321 3.579 7.491 2.581 16.135-2.605 22.557-12.891 15.965-32.041 25.122-52.541 25.122h-162.305c-14.131 14.21-14.107 37.267.072 51.447 20.052 20.052 20.052 52.679 0 72.731-6.881 6.88-10.67 16.029-10.67 25.759s3.789 18.879 10.67 25.759c2.929 2.929 2.929 7.678 0 10.606-1.465 1.469-3.385 2.201-5.303 2.201zm15.71-203.5h151.826c15.945 0 30.842-7.124 40.871-19.545 2.227-2.757 1.26-5.581.741-6.667-.425-.889-2.109-3.788-5.962-3.788h-15.827c-5.29 4.666-12.231 7.5-19.823 7.5s-14.533-2.834-19.823-7.5h-74.192c-3.096 8.73-11.437 15-21.215 15h-32.338c-.651 5.229-2.09 10.276-4.258 15zm-286.716-15c3.095 8.73 11.437 15 21.215 15h23.176c3.284-4.529 5.399-9.676 6.339-15zm290.666-15h32.646c4.136 0 7.5-3.364 7.5-7.5s-3.364-7.5-7.5-7.5h-37.631c2.427 4.699 4.109 9.75 4.985 15zm-291.951 0h51.581c-1.283-5.403-3.805-10.561-7.569-15h-36.512c-4.136 0-7.5 3.364-7.5 7.5zm439.828-37.5c-8.271 0-15 6.729-15 15s6.729 15 15 15 15-6.729 15-15-6.73-15-15-15zm-94.016 22.5h64.965c-.619-2.398-.949-4.911-.949-7.5s.33-5.102.949-7.5h-64.965c-.99 2.793-2.519 5.335-4.458 7.5 1.939 2.166 3.468 4.707 4.458 7.5zm-338.312-15h317.097c4.136 0 7.5-3.364 7.5-7.5s-3.364-7.5-7.5-7.5h-324.597v7.5c0 4.136 3.364 7.5 7.5 7.5zm174.791 263.5c-1.919 0-3.839-.732-5.303-2.197-20.052-20.052-20.052-52.679 0-72.731 11.157-11.157 13.878-28.107 6.773-42.179-1.867-3.698-.383-8.208 3.314-10.076 3.699-1.866 8.208-.383 10.076 3.314 10.033 19.868 6.192 43.798-9.556 59.547-6.88 6.88-10.67 16.029-10.67 25.759s3.79 18.879 10.67 25.759c2.929 2.929 2.929 7.678 0 10.606-1.466 1.466-3.385 2.198-5.304 2.198zm0-407.887c-4.142 0-7.5-3.358-7.5-7.5v-89.113c0-4.142 3.358-7.5 7.5-7.5s7.5 3.358 7.5 7.5v89.113c0 4.142-3.358 7.5-7.5 7.5z"/></g></g></svg>