<svg height="512pt" viewBox="0 0 512 512.00089" width="512pt" xmlns="http://www.w3.org/2000/svg"><path d="m502.949219 79.363281-70.3125-70.308593c-12.066407-12.070313-31.636719-12.070313-43.703125 0l-379.882813 379.875c-12.066406 12.070312-12.066406 31.636718 0 43.707031l70.3125 70.3125c6.03125 6.035156 13.941407 9.050781 21.851563 9.050781s15.820312-3.015625 21.855468-9.050781c12.066407-12.070313 12.066407-31.636719 0-43.707031l-38.652343-38.652344c-5.417969-5.414063-5.417969-14.195313 0-19.605469 5.414062-5.417969 14.191406-5.414063 19.605469 0l38.652343 38.652344c6.035157 6.03125 13.941407 9.050781 21.851563 9.050781s15.820312-3.019531 21.855468-9.050781c12.070313-12.070313 12.070313-31.636719 0-43.707031l-38.652343-38.652344c-5.414063-5.414063-5.414063-14.195313 0-19.609375 5.414062-5.410157 14.191406-5.410157 19.605469 0l38.652343 38.652343c6.035157 6.035157 13.945313 9.054688 21.851563 9.054688 7.910156 0 15.820312-3.019531 21.855468-9.054688 12.070313-12.066406 12.070313-31.636718 0-43.703124l-38.652343-38.652344c-5.414063-5.417969-5.414063-14.195313 0-19.609375 5.414062-5.414063 14.191406-5.414063 19.605469 0l38.652343 38.652343c6.035157 6.035157 13.945313 9.054688 21.855469 9.054688 7.90625 0 15.816406-3.019531 21.851562-9.054688 12.070313-12.066406 12.070313-31.636718 0-43.707031l-38.652343-38.652343c-5.414063-5.410157-5.414063-14.191407 0-19.605469 5.414062-5.414063 14.191406-5.414063 19.605469 0l38.652343 38.652343c6.035157 6.035157 13.945313 9.054688 21.855469 9.054688 7.90625 0 15.816406-3.019531 21.851562-9.054688 12.070313-12.070312 12.070313-31.636718 0-43.707031l-38.652343-38.652343c-5.414063-5.410157-5.414063-14.191407 0-19.605469 5.414062-5.414063 14.191406-5.414063 19.605469 0l38.652343 38.652343c6.035157 6.035157 13.945313 9.054688 21.855469 9.054688s15.816406-3.019531 21.851562-9.054688c12.070313-12.066406 12.070313-31.636718 0-43.703124l-38.652343-38.65625c-5.414063-5.414063-5.414063-14.191407 0-19.605469 5.414062-5.414063 14.191406-5.414063 19.605469 0l38.652343 38.652343c6.035157 6.035157 13.945313 9.054688 21.855469 9.054688s15.816406-3.019531 21.851562-9.054688c12.074219-12.070312 12.074219-31.636718.003907-43.707031zm0 0" fill="#88c5fd"/><path d="m432.636719 9.054688c-12.066407-12.070313-31.636719-12.070313-43.703125 0l-379.882813 379.875c-12.066406 12.070312-12.066406 31.636718 0 43.707031l70.3125 70.3125c6.03125 6.035156 13.941407 9.050781 21.851563 9.050781s15.820312-3.015625 21.855468-9.050781c12.066407-12.070313 12.066407-31.636719 0-43.707031l-38.652343-38.652344c-5.417969-5.414063-5.417969-14.195313 0-19.605469 5.414062-5.417969 14.191406-5.414063 19.605469 0l25.523437 25.523437c-3.160156-26.167968 1.605469-53.109374 14.292969-76.945312-.636719-4.207031.648437-8.652344 3.886718-11.894531 1.652344-1.652344 3.621094-2.792969 5.707032-3.433594 3.972656-5.460937 8.414062-10.6875 13.34375-15.613281l287.714844-287.714844zm0 0" fill="#64b3fb"/><path d="m487.859375 254.757812c-29.714844-29.71875-76.464844-31.972656-108.796875-6.816406l-7.753906-7.753906c-12.070313-12.066406-31.636719-12.066406-43.707032 0l-43.707031 43.707031 87.414063 87.414063c32.1875 32.183594 84.367187 32.183594 116.550781 0 32.1875-32.183594 32.1875-84.363282 0-116.550782zm-43.703125 72.84375c-8.035156 8.035157-21.105469 8.035157-29.140625 0-8.03125-8.03125-8.03125-21.101562 0-29.136718 8.035156-8.03125 21.105469-8.03125 29.140625 0 8.03125 8.035156 8.03125 21.105468 0 29.136718zm0 0" fill="#676f72"/><path d="m370.578125 370.578125-86.683594-86.683594-43.707031 43.707031c-12.066406 12.070313-12.066406 31.636719 0 43.707032l7.753906 7.753906c-25.15625 32.332031-22.898437 79.082031 6.816406 108.800781 32.332032 32.332031 84.84375 32.183594 116.992188-.445312 31.894531-32.371094 30.960938-84.707031-1.171875-116.839844zm-42.976563 73.578125c-8.03125 8.03125-21.101562 8.03125-29.136718 0-8.03125-8.035156-8.03125-21.105469 0-29.140625 8.035156-8.03125 21.105468-8.03125 29.136718 0 8.035157 8.035156 8.035157 21.105469 0 29.140625zm0 0" fill="#4c5659"/><path d="m265.792969 178.378906-11.371094-11.375c-31.292969-31.289062-65.050781-60.007812-100.953125-85.878906l-104.515625-75.308594c-5.074219-3.660156-11.304687-5.81249975-18.035156-5.816406-8.535157-.00390625-16.265625 3.460938-21.863281 9.054688l144.074218 231.132812c4.570313 4.796875 9.191406 9.542969 13.878906 14.230469l73.183594 73.183593 43.707032-43.707031zm0 0" fill="#d4d4d5"/><path d="m327.601562 240.1875-61.808593-61.808594h-36.207031c-32.789063 0-64.230469-13.027344-87.414063-36.207031l-133.117187-133.117187c-5.59375 5.597656-9.054688 13.324218-9.054688 21.859374.00390625 6.734376 2.15625 12.964844 5.816406 18.039063l75.3125 104.519531c6.070313 8.421875 12.300782 16.722656 18.683594 24.90625 16.738281 21.46875 34.53125 42.097656 53.316406 61.8125h35.855469c32.785156 0 64.226563 13.023438 87.414063 36.207032l7.496093 7.496093zm0 0" fill="#9ea2a3"/><path d="m224.914062 209.285156c0 8.53125-6.917968 15.449219-15.453124 15.449219-8.535157 0-15.453126-6.917969-15.453126-15.449219 0-8.535156 6.917969-15.453125 15.453126-15.453125 8.535156 0 15.453124 6.917969 15.453124 15.453125zm0 0" fill="#676f72"/></svg>