<svg height="512pt" viewBox="0 0 512 512.00019" width="512pt" xmlns="http://www.w3.org/2000/svg"><path d="m211.890625 212.75c-.085937-.300781-.175781-.597656-.261719-.890625-3.785156-13.074219-18.675781-19.289063-30.617187-12.757813-41.554688 22.71875-120.269531 73.550782-120.269531 132.617188l145.292968 92.714844 145.296875-92.714844c0-14.074219-9.425781-26.40625-23.007812-30.09375l-35.007813-9.507812c-39.03125-10.605469-69.980468-40.570313-81.425781-79.367188zm0 0" fill="#c9aaf2"/><path d="m186.179688 197.097656c-1.753907.429688-3.492188 1.085938-5.167969 2.003906-41.554688 22.71875-120.269531 73.550782-120.269531 132.617188l102.25 65.25c-8.621094-23.933594-13.332032-49.738281-13.332032-76.644531-.003906-45.460938 13.425782-87.777344 36.519532-123.226563zm0 0" fill="#b28ae4"/><path d="m369.496094 331.71875h-326.917969c-27.785156 0-48.167969 26.457031-41.203125 53.601562 9.46875 36.925782 28.492188 69.96875 54.25 96.285157 19.101562 19.519531 45.226562 30.394531 72.40625 30.394531h156.011719c27.179687 0 53.304687-10.875 72.40625-30.394531 25.757812-26.316407 44.78125-59.359375 54.25-96.285157 6.960937-27.144531-13.417969-53.601562-41.203125-53.601562zm0 0" fill="#ffdbe0"/><g fill="#ffb5c0"><path d="m98.40625 367.777344c0-12.308594 1.097656-24.355469 3.199219-36.058594h-59.027344c-27.785156 0-48.167969 26.457031-41.203125 53.601562 9.46875 36.925782 28.492188 69.96875 54.25 96.285157 19.101562 19.519531 45.226562 30.394531 72.40625 30.394531h30.699219c-37.238281-36.738281-60.324219-87.78125-60.324219-144.222656zm0 0"/><path d="m145.257812 449.160156h-10.304687c-4.265625 0-7.726563 3.457032-7.726563 7.726563 0 4.265625 3.460938 7.726562 7.726563 7.726562h10.304687c4.265626 0 7.726563-3.460937 7.726563-7.726562 0-4.269531-3.460937-7.726563-7.726563-7.726563zm0 0"/><path d="m277.121094 449.160156h-10.304688c-4.265625 0-7.726562 3.457032-7.726562 7.726563 0 4.265625 3.460937 7.726562 7.726562 7.726562h10.304688c4.265625 0 7.722656-3.460937 7.722656-7.726562 0-4.269531-3.457031-7.726563-7.722656-7.726563zm0 0"/></g><path d="m140.105469 415.164062c-4.265625 0-7.726563 3.457032-7.726563 7.726563v10.300781c0 4.265625 3.460938 7.726563 7.726563 7.726563s7.726562-3.460938 7.726562-7.726563v-10.300781c0-4.269531-3.460937-7.726563-7.726562-7.726563zm0 0" fill="#313d40"/><path d="m271.96875 415.164062c-4.265625 0-7.726562 3.457032-7.726562 7.726563v10.300781c0 4.265625 3.460937 7.726563 7.726562 7.726563s7.726562-3.460938 7.726562-7.726563v-10.300781c0-4.269531-3.460937-7.726563-7.726562-7.726563zm0 0" fill="#313d40"/><path d="m226.367188 444.765625c-3.851563-1.84375-8.460938-.214844-10.300782 3.636719-1.71875 3.589844-5.453125 5.90625-9.515625 5.90625s-7.796875-2.316406-9.511719-5.90625c-1.839843-3.851563-6.453124-5.480469-10.300781-3.636719-3.851562 1.839844-5.480469 6.453125-3.640625 10.300781 4.269532 8.929688 13.476563 14.695313 23.453125 14.695313 9.980469 0 19.1875-5.765625 23.453125-14.695313 1.84375-3.847656.214844-8.460937-3.636718-10.300781zm0 0" fill="#313d40"/><path d="m324.609375 156.316406-37.554687-18.78125-36.421876 36.421875c-8.046874 8.046875-8.046874 21.09375 0 29.136719l58.273438 58.277344c8.046875 8.046875 21.09375 8.046875 29.140625 0zm0 0" fill="#4c5659"/><path d="m345.328125 166.671875-20.71875-10.355469c-14.734375 33.675782-10.914063 74.171875 13.433594 105.054688l36.421875-36.421875zm0 0" fill="#676f72"/><path d="m358.074219 197.632812c-3.015625-3.019531-7.90625-3.019531-10.925781 0l-29.136719 29.136719c-3.015625 3.019531-3.015625 7.910157 0 10.925781 1.507812 1.511719 3.488281 2.265626 5.464843 2.265626 1.976563 0 3.953126-.753907 5.460938-2.265626l29.136719-29.136718c3.019531-3.015625 3.019531-7.910156 0-10.925782zm0 0" fill="#313d40"/><path d="m336.222656 175.777344c-3.015625-3.015625-7.910156-3.015625-10.925781 0l-29.136719 29.140625c-3.019531 3.015625-3.019531 7.910156 0 10.925781 1.507813 1.507812 3.484375 2.261719 5.460938 2.261719 1.976562 0 3.957031-.753907 5.464844-2.261719l29.136718-29.140625c3.019532-3.015625 3.019532-7.90625 0-10.925781zm0 0" fill="#313d40"/><path d="m314.371094 153.925781c-3.019532-3.015625-7.910156-3.015625-10.925782 0l-29.140624 29.136719c-3.015626 3.019531-3.015626 7.910156 0 10.925781 1.507812 1.507813 3.484374 2.265625 5.464843 2.265625 1.976563 0 3.953125-.753906 5.460938-2.265625l29.136719-29.136719c3.019531-3.015624 3.019531-7.910156.003906-10.925781zm0 0" fill="#313d40"/><path d="m330.761719 122.964844c-8.046875-8.042969-21.09375-8.042969-29.140625 0l-14.566406 14.570312 32.625 32.625 19.996093-38.277344zm0 0" fill="#ffb5c0"/><path d="m506.746094 6.878906c-7.597656-8.492187-20.640625-9.222656-29.136719-1.625l-137.933594 126.628906c-9.484375 11.386719-16.1875 24.476563-20 38.277344l54.789063 54.789063 14.570312-14.570313c8.046875-8.046875 8.046875-21.089844 0-29.136718l-8.914062-8.914063 126.625-137.933594c6.929687-7.730469 7.082031-19.597656 0-27.515625zm0 0" fill="#ffdbe0"/></svg>