<svg id="Capa_1" enable-background="new 0 0 504.5 504.5" height="256pt" viewBox="0 0 504.5 504.5" width="256pt" xmlns="http://www.w3.org/2000/svg"><g><path d="m78 194.412c0 34.307-30 41.095-30 78.147s37.5 45.095 37.5 82.147-55 47.34-55 93.628c0 17.834 24.944 38.666 39.305 38.666 9.413 0 107.2-10 107.2-10-11.17-2.987-21.505-14.765-21.505-28.666 0-46.288 55-56.576 55-93.628s-37.5-45.095-37.5-82.147 30-43.84 30-78.147c0-24.307-15-27.114-15-74.166 0-37.053 0-90.246 0-90.246l-67.5-15-47.5 10.556s-10 74.823-10 94.69c0 47.051 15 49.858 15 74.166z" fill="#c38778"/><g fill="#b46e5a"><path d="m177.005 477c-40.023 0-97.787 0-107.2 0-14.361 0-29.305-10.832-29.305-28.666 0-46.288 55-56.576 55-93.628s-37.5-45.095-37.5-82.147 30-43.84 30-78.147c0-24.307-15-27.114-15-74.166 0-19.866 0-60.897 0-94.69l-20 4.444v90.245c0 47.052 15 49.859 15 74.166 0 34.307-30 41.095-30 78.147s37.5 45.095 37.5 82.147-55 47.34-55 93.628c0 30.278 25.37 48.667 49.751 48.667h12.038l5.262-4.564s11.509 4.564 25.979 4.564 94.466 0 96.969 0c3.851 0 7.501-2.569 7.501-7.5 0-3.057-1.257-7.206-7.501-8.122-9.791-1.437-26.283-2.45-33.494-4.378z"/><path d="m83.374 477c-5.517-6.834-10.374-16.341-10.374-28.666 0-21.188 13.322-33.711 27.428-46.97 13.555-12.742 27.572-25.919 27.572-46.658 0-21.237-10.882-34.323-20.483-45.869-9.131-10.98-17.017-20.463-17.017-36.278 0-16.499 6.828-26.159 14.058-36.386 7.473-10.572 15.942-22.555 15.942-41.762 0-11.641-3.028-19.036-6.235-26.865-4.108-10.031-8.765-21.401-8.765-47.301v-90.245c0-4.143-3.357-7.5-7.5-7.5s-7.5 3.357-7.5 7.5v90.245c0 28.852 5.48 42.233 9.884 52.986 2.971 7.252 5.116 12.491 5.116 21.18 0 14.44-6.113 23.089-13.191 33.104-7.879 11.145-16.809 23.778-16.809 45.044 0 21.236 10.882 34.323 20.483 45.869 9.131 10.98 17.017 20.464 17.017 36.278 0 14.253-10.587 24.205-22.847 35.729-15.071 14.168-32.153 30.225-32.153 57.899 0 11.196 2.97 20.587 7.147 28.283 1.547.248 8.548 5.382 10.1 5.382 2.188.001 8.127-4.999 8.127-4.999z"/><path d="m118 448.334c0-21.188 13.322-33.711 27.428-46.97 13.555-12.742 27.572-25.919 27.572-46.658 0-21.237-10.882-34.323-20.483-45.869-9.131-10.98-17.017-20.463-17.017-36.278 0-16.499 6.828-26.159 14.058-36.386 7.473-10.572 15.942-22.555 15.942-41.762 0-11.641-3.028-19.036-6.235-26.865-4.108-10.031-8.765-21.401-8.765-47.301v-90.245c0-4.143-3.357-7.5-7.5-7.5s-7.5 3.357-7.5 7.5v90.245c0 28.852 5.48 42.233 9.884 52.986 2.971 7.252 5.116 12.491 5.116 21.18 0 14.44-6.113 23.089-13.191 33.104-7.879 11.146-16.809 23.778-16.809 45.044 0 21.236 10.882 34.323 20.483 45.869 9.131 10.98 17.017 20.464 17.017 36.278 0 14.253-10.587 24.205-22.847 35.729-15.071 14.168-32.153 30.225-32.153 57.899 0 10.41 2.715 20.202 7.794 28.666l9.706 3 9.194-3c-7.561-7.817-11.694-18.329-11.694-28.666z"/></g><path d="m83.374 477c-6.58 0-11.381 0-13.568 0-1.553 0-3.111-.134-4.658-.383 4.977 9.17 11.667 15.922 17.142 20.383h31.241c-3.849-1.343-9.182-3.503-14.544-6.641-.58-.338-8.626-4.703-15.613-13.359z" fill="#785252"/><path d="m121.238 489.616c10.597 9.459 24.816 14.884 39.013 14.884 36 0 50.463-23.526 56.639-33.572 2.169-3.528 1.066-8.147-2.462-10.317-3.526-2.167-8.148-1.066-10.317 2.462-8.438 13.726-19.591 26.428-43.859 26.428-12.937 0-23.318-5.015-30.557-12.5-6.505 0-12.873 0-18.899 0 2.786 4.644 6.275 8.895 10.442 12.615z" fill="#785252"/><path d="m73 0-10 25 125-10v-7.5c0-4.142-3.358-7.5-7.5-7.5z" fill="#b46e5a"/><path d="m73 0h-12.5c-4.142 0-7.5 3.358-7.5 7.5v22.5h135v-15h-111.5c-1.933 0-3.5-1.567-3.5-3.5z" fill="#785252"/><path d="m357.341 487c9.206 0 36.28-5 113.173-5-38.731-10.873-57.514-36.944-57.514-71.393 0-37.052 0-380.607 0-380.607l-67.5-15-47.5 10.556c0 70.18-5 360.186-5 387.842 0 51.299 39.028 73.602 64.341 73.602z" fill="#fff0af"/><path d="m362.341 482c-25.313 0-64.341-22.303-64.341-73.602 0-27.656 0-312.663 0-382.842l-20 4.444v380.607c0 60.214 45.811 86.393 75.523 86.393h9.694c12.236 0 10.935-3 10.935-3s14.571 3 38.37 3h63.978c7.5 0 8.672-13.707-.424-14.234-1.764-.102-3.158-.359-5.562-.766-7.947 0-98.967 0-108.173 0z" fill="#ffd064"/><path d="m476.5 474.5h-48.978c-19.97 0-36.991-6.512-49.226-18.832-11.476-11.558-17.796-27.561-17.796-45.062v-385.05c0-4.143 3.357-7.5 7.5-7.5s7.5 3.357 7.5 7.5v385.051c0 24.337 16.086 48.894 52.022 48.894h48.978c4.143 0 7.5 3.357 7.5 7.5s-3.357 7.499-7.5 7.499z" fill="#ffd064"/><path d="m367.586 482c-20.586-14.175-37.086-38.22-37.086-71.394v-385.05c0-4.143-3.357-7.5-7.5-7.5s-7.5 3.357-7.5 7.5v385.051c0 30.394 11.476 51.847 23.883 66.163 7.958 3.531 15.979 7.23 22.958 7.23.944 0 2.759-2 5.245-2z" fill="#ffd064"/><path d="m362.341 482c-6.979 0-15-1.699-22.958-5.23 3.271 3.774 6.606 7.06 9.813 9.874 4.381 3.845 9.095 7.306 14.022 10.356h49.305c-14.15 0-30.542-5.089-44.936-15-2.487 0-4.302 0-5.246 0z" fill="#ebb044"/><path d="m298 0-10 25 125-10v-7.5c0-4.142-3.358-7.5-7.5-7.5z" fill="#ffd064"/><path d="m298 0h-12.5c-4.142 0-7.5 3.358-7.5 7.5v22.5h135v-15h-111.5c-1.933 0-3.5-1.567-3.5-3.5z" fill="#ebb044"/></g></svg>