<svg id="Capa_1" enable-background="new 0 0 512 512" height="256px" viewBox="0 0 512 512" width="256px" xmlns="http://www.w3.org/2000/svg"><g><path d="m436 482c-90.981 0-165-76.019-165-167v-60c0-70.448-28.504-134.572-75-180.919-45.82-45.672-110.114-74.081-181-74.081-8.291 0-15 6.709-15 15v75l15 15-15 15v45c0 8.291 6.709 15 15 15 57.891 0 106 47.109 106 105v30c0 62.254 29.436 119.653 75 155.38 33.131 25.977 74.734 41.62 120 41.62h120c8.291 0 15-6.709 15-15s-6.709-15-15-15z" fill="#da90f8"/><path d="m436 512c8.291 0 15-6.709 15-15s-6.709-15-15-15c-90.981 0-165-76.019-165-167v-60c0-70.448-28.504-134.572-75-180.919v396.299c33.131 25.977 74.734 41.62 120 41.62z" fill="#b760ea"/><g><path d="m354.564 184.512-34.472-28.925-57.221 51.287 1.219 38.789 22.982 19.284 9.388 7.877 39.824.245 52.752-59.631z" fill="#da90f8"/><path d="m336.284 273.069 52.752-59.631-34.472-28.926-67.492 80.435 9.388 7.877z" fill="#b760ea"/><path d="m417.962 178.966-34.472-28.926-34.472-28.925-42.265 3.698-48.207 57.451c-5.338 6.385-14.662 7.261-20.999 1.966-6.34-5.32-15.8-4.478-21.129 1.873-5.311 6.329-4.48 15.782 1.84 21.103.011.009.022.019.034.028l45.799 38.43c6.435 5.4 15.734 4.585 21.132-1.849l38.567-45.963c5.4-6.435 14.697-7.249 21.132-1.849s7.249 14.697 1.849 21.132l-38.567 45.963c-3.401 4.054-7.438 7.19-11.744 9.726l13.757 11.544c19.074 15.981 47.294 13.337 63.269-5.726l48.174-57.411z" fill="#efb9ff"/><path d="m346.771 217.135-38.567 45.963c-3.401 4.054-7.438 7.19-11.744 9.726l13.757 11.544c19.074 15.981 47.294 13.337 63.269-5.726l48.174-57.411-3.698-42.265-34.472-28.926-38.567 45.963c6.435 5.4 7.248 14.697 1.848 21.132z" fill="#da90f8"/><path d="m448.372 166.102c-.022-.019-.045-.038-.09-.075-11.495-9.682-13.728-26.267-5.258-38.688l66.435-104.088c4.266-6.269 3.017-14.865-2.671-19.867-.051-.036-.116-.05-.167-.085-5.805-4.013-14.113-4.824-19.714.159l-93.47 88.482c-9.294 8.262-23.546 8.419-33.067.442l-4.021-3.367c-6.349-5.309-15.8-4.478-21.129 1.873l-28.466 33.925 57.453 48.209 57.453 48.209 28.552-34.027c5.3-6.341 4.484-15.776-1.84-21.102z" fill="#5a5a5a"/><path d="m450.212 187.203c5.3-6.34 4.484-15.776-1.84-21.101-.022-.019-.045-.038-.09-.075-11.495-9.682-13.728-26.267-5.258-38.688l66.435-104.088c4.266-6.269 3.017-14.865-2.671-19.867-.051-.036-.116-.05-.167-.085l-142.415 169.722 57.453 48.209z" fill="#292929"/></g><path d="m196 210.119c-29.423-70.455-100.005-120.119-181-120.119h-15v30h15c90.981 0 166 74.019 166 165 0 8.291 6.709 15 15 15s15-6.709 15-15c0-26.525-5.365-51.808-15-74.881z" fill="#b760ea"/><path d="m211 285c0-26.525-5.365-51.808-15-74.881v89.881c8.291 0 15-6.709 15-15z" fill="#a24bdb"/></g></svg>