<?xml version="1.0" standalone="no"?>
<!DOCTYPE svg PUBLIC "-//W3C//DTD SVG 20010904//EN"
 "http://www.w3.org/TR/2001/REC-SVG-20010904/DTD/svg10.dtd">
<svg version="1.0" xmlns="http://www.w3.org/2000/svg"
 width="600.000000pt" height="600.000000pt" viewBox="0 0 600.000000 600.000000"
 preserveAspectRatio="xMidYMid meet">
<metadata>
Created by potrace 1.16, written by Peter Selinger 2001-2019
</metadata>
<g transform="translate(0.000000,600.000000) scale(0.100000,-0.100000)"
fill="#000000" stroke="none">
<path d="M2993 5993 l2997 -3 0 -2990 0 -2990 -2990 0 -2990 0 -3 2988 -2
2987 -3 -2992 -2 -2993 3000 0 3000 0 0 3000 0 3000 -3002 -2 -3003 -3 2998
-2z"/>
<path d="M2555 5143 c-82 -10 -235 -48 -318 -77 -116 -42 -212 -85 -205 -91 2
-3 46 4 97 15 252 55 548 81 706 61 173 -21 343 -81 459 -160 66 -46 156 -131
196 -187 l35 -49 -45 36 c-91 74 -246 140 -324 138 -25 0 -19 -4 29 -18 196
-56 362 -206 435 -391 29 -75 24 -91 -11 -34 -59 94 -169 190 -271 236 -57 26
-145 46 -239 53 -107 9 -129 -8 -33 -24 191 -34 369 -147 462 -294 59 -93 112
-211 105 -236 -9 -37 7 -73 57 -123 47 -47 70 -54 70 -23 0 7 -16 30 -35 51
-73 77 -28 157 117 207 l73 25 -44 1 -43 1 61 41 c57 38 75 59 50 59 -6 0 -18
-4 -28 -10 -17 -9 -101 -30 -101 -26 0 10 140 112 173 126 87 38 162 35 202
-10 27 -30 4 -77 -49 -100 -44 -19 -106 -66 -106 -81 0 -12 47 -11 163 3 117
14 194 4 282 -37 58 -28 175 -129 163 -141 -4 -3 -30 -1 -58 5 -98 21 -373 3
-360 -24 3 -6 33 -9 70 -7 93 5 212 -22 308 -68 183 -87 302 -264 302 -446 0
-91 -8 -110 -48 -123 -21 -7 -42 -14 -48 -17 -8 -3 -13 17 -16 63 -5 88 -41
166 -108 237 -72 76 -249 191 -283 184 -7 -1 -29 4 -50 11 -35 12 -38 15 -32
41 7 32 -15 84 -40 94 -33 12 -67 5 -89 -19 l-23 -25 -6 27 c-3 16 -15 38 -26
50 -12 12 -21 24 -21 26 0 2 32 19 70 36 39 18 70 37 70 42 0 12 -2 12 -98
-11 -46 -11 -85 -20 -86 -20 -2 0 -9 13 -16 30 -30 72 -136 87 -202 29 l-23
-21 25 16 c32 21 85 20 135 -3 58 -26 71 -45 55 -76 -18 -33 -80 -37 -80 -5 0
35 -39 60 -93 60 -40 0 -53 -5 -78 -29 -35 -35 -38 -77 -8 -115 28 -35 45 -33
19 2 -25 34 -19 76 14 97 36 23 97 23 120 -1 25 -25 19 -34 -23 -34 -44 0 -64
-18 -59 -52 4 -28 44 -33 42 -5 -2 24 51 24 61 0 9 -24 -28 -53 -69 -53 -27
-1 -29 -2 -12 -12 13 -7 29 -7 58 1 44 14 65 49 48 82 -9 16 -7 19 9 19 29 0
63 -49 56 -80 -9 -38 -27 -50 -81 -59 l-49 -9 40 -1 c48 -1 81 15 108 51 18
24 19 32 10 63 -14 43 2 47 43 12 48 -42 29 -118 -38 -155 -16 -10 -37 -23
-46 -30 -15 -10 -13 -11 13 -6 50 11 85 33 105 67 l20 32 0 -35 c0 -153 -197
-188 -384 -70 -27 17 -50 29 -53 27 -5 -6 111 -93 152 -114 l30 -16 -30 -8
c-54 -15 -128 16 -187 78 -38 40 -73 103 -133 244 -60 143 -164 253 -285 301
-47 19 -74 23 -180 23 -107 0 -133 -4 -182 -23 -32 -13 -58 -27 -58 -31 0 -5
26 -2 58 5 162 38 319 -11 448 -140 59 -60 81 -93 144 -215 54 -105 87 -158
126 -197 46 -48 49 -53 26 -48 -70 17 -149 73 -295 210 -198 188 -208 189 -95
18 94 -143 185 -232 286 -281 75 -37 79 -38 192 -38 105 0 119 2 166 27 27 14
56 34 63 42 8 9 25 16 39 16 24 0 50 11 198 82 50 23 73 28 115 26 l54 -3 0
-42 c0 -34 6 -48 34 -77 41 -43 36 -63 -19 -72 l-40 -7 0 -48 c0 -36 -6 -55
-25 -77 -29 -34 -74 -50 -86 -30 -13 20 -11 25 21 38 37 15 54 35 46 56 -5 14
-9 13 -32 -5 -32 -25 -46 -26 -84 -6 -39 20 -60 63 -60 120 0 25 -4 45 -9 45
-15 0 -33 -68 -29 -106 4 -32 2 -35 -16 -29 -12 4 -51 9 -87 12 -53 4 -75 1
-117 -17 -28 -12 -58 -30 -68 -41 -16 -18 -17 -18 -45 1 -65 47 -150 61 -219
36 -41 -15 -45 -30 -10 -34 61 -7 149 -45 195 -83 28 -23 51 -45 53 -49 14
-37 -286 -31 -314 6 -7 9 -10 38 -7 77 9 117 -43 256 -124 327 -39 34 -156 98
-210 114 -40 13 -25 -12 35 -55 31 -23 70 -54 85 -68 77 -70 121 -180 115
-286 l-3 -56 -46 30 c-59 37 -96 85 -124 164 -17 46 -25 57 -30 44 -4 -9 -5
-33 -3 -52 2 -19 2 -35 0 -35 -2 0 -18 11 -35 24 -18 14 -44 29 -59 35 l-26
10 14 48 c21 65 20 241 0 316 -41 151 -115 229 -238 251 -51 9 -48 -4 11 -42
57 -37 92 -81 129 -160 23 -50 27 -73 30 -182 3 -85 1 -122 -6 -115 -15 15
-118 216 -125 245 -5 18 -9 22 -17 14 -8 -8 -8 -34 2 -93 14 -82 12 -93 -15
-66 -22 21 -34 64 -57 205 -22 136 -48 203 -103 266 -38 44 -160 114 -174 101
-4 -5 1 -13 11 -19 43 -24 95 -81 124 -135 37 -71 50 -118 63 -229 5 -47 16
-101 24 -120 16 -39 12 -41 -32 -15 -35 22 -83 87 -115 158 -28 63 -35 32 -14
-61 9 -37 16 -70 16 -73 0 -12 -33 23 -61 64 -44 63 -58 112 -70 242 -6 68
-20 145 -34 186 -28 85 -84 185 -103 185 -10 0 -12 -6 -7 -17 44 -105 57 -165
62 -277 6 -117 6 -118 -15 -107 -51 27 -84 105 -97 229 -3 34 -12 82 -19 107
-12 38 -12 47 2 67 53 81 162 161 260 193 28 10 52 20 52 22 0 3 -31 3 -70 1
-84 -6 -157 -39 -229 -104 -28 -25 -51 -43 -51 -39 0 11 33 70 58 103 13 17
21 32 17 32 -17 0 -74 -42 -90 -66 l-16 -25 -60 55 c-62 57 -129 87 -193 85
-30 -1 -30 -1 -6 -8 147 -45 252 -192 267 -375 6 -65 5 -69 -13 -62 -10 5 -34
13 -53 18 -19 5 -65 38 -103 71 -74 67 -124 150 -149 246 -12 46 -29 69 -29
39 0 -7 -16 4 -36 24 -65 67 -140 73 -268 22 -37 -14 -65 -28 -63 -30 2 -2 37
3 78 12 77 16 123 13 172 -12 32 -17 67 -69 67 -101 l0 -21 -40 19 c-139 67
-341 64 -482 -7 -69 -35 -154 -117 -186 -179 -30 -60 -33 -139 -8 -199 19 -42
32 -44 16 -2 -29 78 6 185 85 254 133 117 324 151 510 91 l70 -23 -70 -8
c-222 -25 -423 -160 -478 -322 -20 -59 -9 -59 23 1 38 73 122 150 204 189 92
43 189 58 336 51 l115 -6 33 -38 34 -38 -89 -6 c-191 -14 -395 -93 -513 -199
-40 -36 -38 -36 89 20 206 90 400 117 645 88 l109 -13 13 -45 c8 -25 14 -48
14 -51 0 -4 -26 4 -57 17 -82 32 -303 58 -303 35 0 -5 22 -12 48 -16 69 -9 85
-22 36 -30 -21 -4 -127 -24 -234 -46 -138 -27 -221 -39 -283 -39 -50 0 -87 -4
-87 -10 0 -5 26 -17 58 -27 96 -29 219 -22 407 23 146 35 172 38 295 38 125 0
139 -2 191 -27 31 -15 65 -27 76 -27 16 0 22 -8 25 -37 3 -21 4 -39 4 -40 -1
-1 -24 5 -51 13 -29 9 -103 17 -175 20 -121 4 -123 3 -72 -10 63 -16 222 -85
222 -96 0 -13 -186 -23 -300 -16 -125 7 -118 -3 28 -40 122 -32 268 -36 356
-10 l59 17 31 -29 c17 -16 47 -38 66 -48 l35 -17 -58 -14 c-101 -23 -99 -30 9
-37 131 -8 220 -23 269 -45 l40 -18 -160 -7 c-217 -10 -309 6 -392 70 -45 34
-41 13 7 -40 23 -25 66 -55 103 -72 l62 -29 228 -1 c158 0 231 -4 239 -12 9
-9 8 -12 -3 -16 -54 -16 -109 -39 -109 -46 0 -4 42 -9 93 -12 78 -3 100 -8
145 -33 28 -15 50 -30 48 -32 -2 -2 -52 -13 -112 -24 -135 -26 -333 -23 -401
5 -40 17 -95 67 -106 98 -3 9 -8 10 -16 3 -16 -16 5 -79 39 -119 84 -95 326
-116 569 -50 81 22 95 23 110 11 9 -8 35 -24 58 -37 24 -13 40 -26 37 -29 -3
-3 -24 -10 -47 -16 -49 -12 -59 -32 -20 -40 15 -3 102 -23 193 -45 91 -22 184
-40 208 -40 23 0 42 -4 42 -9 0 -13 -196 -98 -269 -116 -78 -21 -133 -13 -161
22 -11 14 -20 29 -20 32 0 4 19 12 43 18 57 15 112 54 112 78 0 24 -23 23
-128 -1 -97 -23 -256 -16 -294 12 -18 14 -29 32 -31 52 -4 36 -16 41 -32 13
-20 -38 -12 -81 21 -112 39 -37 83 -50 190 -56 l85 -5 12 -44 c7 -27 21 -50
37 -60 67 -44 219 -18 392 66 56 28 104 50 106 50 3 0 7 -13 10 -30 7 -32 57
-70 92 -70 17 1 15 3 -8 16 -15 8 -32 25 -36 36 -8 23 5 128 18 141 5 5 18 -8
29 -27 34 -57 43 -46 36 42 -6 69 -4 80 15 103 11 15 34 29 51 32 16 4 30 11
30 17 0 18 -48 22 -81 6 -40 -20 -45 -20 -53 0 -8 22 86 64 144 64 48 0 120
-17 120 -27 0 -4 -12 -20 -27 -36 -29 -30 -27 -31 19 -8 32 16 83 8 117 -18
l25 -19 -50 -14 c-34 -10 -58 -11 -80 -5 -71 21 -164 -27 -164 -84 0 -16 5
-29 10 -29 6 0 10 6 10 14 0 22 49 56 79 55 24 0 24 -1 6 -9 -27 -11 -48 -37
-40 -50 8 -13 35 -13 35 0 0 6 9 10 20 10 15 0 20 -7 20 -25 0 -31 -26 -45
-82 -45 -36 -1 -40 -2 -24 -11 25 -15 103 -5 126 16 22 20 27 74 8 93 -18 18
4 15 31 -4 33 -23 53 -77 41 -108 -12 -32 -50 -42 -102 -27 -49 15 -61 6 -29
-21 21 -16 22 -21 10 -29 -16 -10 -80 -12 -104 -3 -10 4 -23 21 -31 38 l-13
31 -1 -31 c0 -41 33 -82 74 -89 45 -9 109 10 138 40 12 14 30 25 39 25 23 0
58 41 65 77 5 27 -5 60 -44 136 -7 13 89 7 118 -8 56 -29 59 -115 6 -196 -29
-43 -23 -50 17 -19 29 23 67 96 67 128 0 19 4 21 25 16 32 -8 55 11 55 45 0
35 -22 65 -60 81 -36 15 -36 15 -10 47 12 15 20 41 20 63 0 30 4 39 21 43 16
4 18 3 8 -9 -6 -7 -9 -21 -5 -29 4 -12 11 -13 31 -5 34 13 65 -3 65 -34 0 -25
-22 -51 -33 -39 -4 3 -7 1 -7 -5 0 -7 11 -12 24 -12 29 0 56 33 56 68 0 33
-43 72 -80 72 -30 0 -31 1 -16 22 26 36 20 83 -13 110 -21 18 -30 36 -32 65
-5 47 -7 47 73 -15 112 -87 195 -212 218 -328 10 -51 9 -71 -4 -124 -18 -70
-51 -130 -71 -130 -24 0 -82 29 -129 65 -25 19 -46 30 -46 25 0 -24 93 -108
190 -173 128 -84 137 -92 161 -139 42 -82 14 -170 -68 -216 l-42 -23 1 63 c0
138 -73 242 -244 352 -31 20 -62 36 -69 36 -6 0 27 -40 74 -89 108 -114 141
-177 145 -282 2 -42 -3 -112 -12 -160 -29 -155 -38 -233 -37 -322 1 -77 -3
-97 -30 -162 -68 -165 -196 -245 -290 -182 -50 33 -71 80 -66 148 6 69 45 164
56 135 5 -13 10 -4 19 34 7 29 27 78 46 109 19 31 45 79 59 106 14 28 53 86
86 130 73 96 96 157 87 229 -11 98 -103 181 -192 174 l-41 -3 5 38 c6 49 -13
49 -33 0 -27 -64 -74 -102 -54 -43 16 43 5 61 -14 23 -24 -45 -60 -70 -122
-84 -69 -15 -132 0 -197 48 -40 29 -49 32 -54 19 -3 -9 -4 -23 0 -31 7 -19
-16 -89 -60 -182 -39 -81 -112 -167 -182 -211 -159 -102 -389 -100 -543 3 -60
41 -78 38 -28 -5 47 -40 152 -95 222 -115 112 -32 275 -16 365 36 33 19 34 19
62 -1 18 -12 44 -20 71 -20 54 0 83 -23 68 -53 -16 -29 -2 -116 26 -158 16
-25 39 -43 69 -54 44 -17 53 -25 40 -37 -7 -8 -82 21 -117 45 -43 30 -67 86
-67 162 0 72 -12 84 -31 28 -18 -55 -14 -135 9 -179 21 -40 71 -93 106 -111
17 -10 15 -13 -23 -41 -114 -83 -232 -65 -309 48 -40 59 -38 72 15 141 26 34
64 80 84 103 41 46 59 77 59 100 0 25 -24 19 -54 -13 -15 -16 -56 -42 -89 -57
-55 -25 -73 -29 -157 -28 -105 1 -192 27 -273 82 -71 47 -74 45 -16 -10 112
-105 230 -155 346 -146 43 4 51 2 41 -9 -20 -25 -131 -104 -166 -119 -69 -28
-138 -12 -181 42 -12 15 -24 24 -28 21 -11 -12 45 -74 84 -93 27 -13 58 -19
106 -18 55 0 67 -2 67 -15 0 -9 3 -33 6 -54 l7 -37 -44 0 c-87 0 -173 21 -243
58 -67 36 -69 38 -91 102 -12 36 -28 115 -34 175 -37 336 -140 594 -345 864
-97 128 -95 125 -101 119 -4 -3 13 -34 35 -69 58 -89 161 -305 203 -425 89
-255 131 -500 131 -764 -1 -197 -12 -278 -59 -413 -64 -186 -202 -321 -375
-367 -70 -19 -73 -20 -68 -25 10 -11 127 19 185 46 195 93 339 326 390 632
l16 98 32 -108 c75 -259 197 -474 338 -597 34 -29 121 -95 192 -146 172 -124
289 -241 338 -339 39 -78 46 -76 22 5 -17 59 -77 155 -137 220 -24 26 -108
102 -188 169 -80 67 -171 149 -202 182 -106 113 -211 295 -292 513 -19 51 -34
95 -32 97 2 2 30 -13 62 -32 80 -48 152 -68 228 -63 l61 5 45 -50 c52 -58 127
-97 187 -97 l41 0 -5 -60 c-14 -151 81 -236 282 -256 39 -3 78 -11 88 -16 36
-19 12 -103 -33 -113 -38 -8 -100 -63 -116 -101 -19 -45 -18 -70 7 -121 22
-46 51 -68 75 -59 12 5 10 13 -11 43 -50 75 -24 133 88 199 108 63 129 98 90
153 -16 24 -15 24 36 -4 102 -56 134 -122 95 -197 -22 -42 3 -33 34 13 34 49
28 128 -16 190 -27 41 -48 55 -175 118 -216 108 -275 168 -242 248 l15 36 36
-34 c32 -31 40 -34 95 -34 l59 1 0 -31 c0 -69 61 -126 185 -175 216 -85 229
-136 101 -385 -41 -81 -78 -166 -82 -190 -8 -54 8 -104 43 -136 l26 -24 -19
35 c-11 22 -18 56 -18 90 0 63 17 100 106 233 68 102 88 150 88 218 0 101 -40
147 -192 225 -106 55 -158 99 -158 133 0 10 13 34 28 54 26 33 30 34 53 21 36
-20 116 -17 163 6 53 25 125 99 169 172 31 51 35 55 41 35 3 -12 6 -41 6 -64
0 -37 -4 -44 -31 -58 -82 -43 -148 -133 -149 -203 0 -69 57 -142 113 -142 24
0 22 7 -13 47 -47 53 -38 124 23 181 l24 23 -4 -48 c-5 -55 8 -82 75 -163 51
-63 55 -107 17 -189 -14 -30 -24 -56 -21 -58 6 -7 66 94 76 128 17 57 11 92
-25 168 -37 76 -42 112 -24 174 9 32 19 42 70 68 131 66 186 147 177 262 -6
74 -33 131 -124 262 -53 78 -94 150 -94 168 0 3 18 7 41 11 177 28 259 237
144 365 -30 33 -95 69 -169 95 -18 6 -16 10 15 43 60 62 123 77 199 47 57 -23
74 -58 44 -89 -14 -13 -28 -15 -82 -9 -52 5 -64 4 -60 -7 6 -18 41 -27 116
-28 54 -1 66 2 87 24 29 28 31 54 10 95 -32 62 -126 95 -208 72 -29 -8 -37 -8
-37 3 0 20 60 40 125 40 48 0 70 -6 108 -28 84 -50 134 -161 109 -243 -15 -50
4 -51 29 -2 15 29 23 62 23 103 2 108 -71 193 -186 217 l-56 12 20 45 c58 136
18 313 -100 442 -28 30 -68 65 -90 79 -35 22 -40 30 -40 61 0 50 -22 87 -91
152 -75 69 -166 115 -262 131 l-74 12 3 36 c12 136 -184 219 -340 145 -74 -36
-160 -128 -179 -191 -10 -36 -18 -46 -35 -46 -19 0 -22 7 -28 70 -14 141 -59
261 -140 374 -181 253 -510 400 -884 395 -59 -1 -120 -4 -137 -6z m1812 -2136
c84 -47 106 -188 50 -311 -14 -31 -27 -56 -29 -56 -2 0 -2 21 0 47 4 50 -27
151 -51 172 -11 8 -13 -7 -13 -77 1 -100 -17 -145 -116 -307 -137 -221 -163
-330 -103 -421 15 -23 15 -27 0 -50 -21 -33 -73 -64 -107 -64 -32 0 -53 27
-63 82 -9 49 2 80 101 286 46 95 84 175 84 177 0 3 -6 5 -12 5 -7 0 -30 -25
-51 -55 -37 -54 -40 -55 -75 -49 -20 3 -47 17 -59 30 -18 19 -23 21 -23 9 0
-21 19 -57 39 -72 23 -18 -3 -16 -39 2 -33 17 -60 62 -70 117 l-7 38 53 -6
c37 -5 68 -2 104 10 28 9 60 14 70 11 63 -20 148 111 119 182 l-12 28 -8 -43
c-9 -47 -45 -118 -64 -126 -7 -2 -2 14 10 37 13 23 27 60 31 82 3 22 13 52 20
67 8 15 14 39 14 53 0 24 2 25 35 19 50 -9 85 16 85 61 0 18 -4 36 -9 40 -12
7 -1 78 13 87 17 11 58 9 83 -5z m-319 -87 c26 -16 32 -26 32 -54 0 -25 -7
-39 -22 -50 -12 -9 -18 -16 -13 -16 14 0 55 42 55 57 0 25 18 13 25 -18 5 -22
0 -44 -22 -87 -15 -31 -30 -60 -31 -64 -2 -5 4 -5 13 -2 16 6 16 4 0 -27 -58
-113 -151 -158 -235 -114 -34 17 -34 19 -20 46 13 22 47 24 74 4 64 -49 156
27 156 128 0 69 -30 52 -44 -25 -8 -43 -46 -78 -85 -78 -22 1 -24 2 -8 11 30
18 20 32 -19 26 -53 -9 -93 2 -111 30 -16 23 -15 28 13 80 48 91 119 125 174
84 36 -26 40 -26 40 -3 0 30 -37 57 -80 57 -24 0 -46 -8 -59 -19 -19 -18 -21
-18 -21 -2 0 10 5 26 10 37 15 28 131 27 178 -1z m-589 -718 c15 -54 69 -114
125 -141 73 -36 181 -26 250 22 l29 21 -7 -34 c-7 -39 -37 -66 -111 -104 -65
-33 -149 -35 -212 -5 -55 27 -117 97 -137 156 -24 69 -21 98 12 121 31 24 34
22 51 -36z m326 -350 c0 -86 39 -145 125 -190 36 -19 66 -35 68 -37 11 -11
-143 27 -175 43 -67 35 -99 91 -86 153 5 25 52 89 65 89 2 0 4 -26 3 -58z"/>
<path d="M1171 4141 c-89 -48 -167 -161 -201 -297 -22 -84 -29 -298 -10 -309
6 -4 10 14 10 47 0 70 32 202 70 284 16 37 64 112 105 166 92 122 98 148 26
109z"/>
<path d="M1410 4152 c0 -5 24 -16 53 -25 28 -9 86 -37 128 -61 71 -42 78 -49
129 -138 143 -247 180 -341 183 -465 3 -115 17 -85 17 36 0 111 -24 233 -64
324 -24 55 -5 38 48 -42 59 -89 92 -163 119 -270 19 -79 21 -114 22 -411 1
-424 11 -472 180 -829 76 -163 109 -241 103 -246 -2 -2 -36 -19 -76 -39 -162
-81 -436 -180 -570 -206 -92 -18 -190 -9 -246 24 -51 30 -55 26 -26 -21 50
-83 178 -98 373 -45 l108 30 28 -42 c15 -22 59 -99 98 -171 38 -71 76 -140 83
-152 17 -26 21 -23 -60 -56 -78 -33 -146 -81 -187 -133 l-31 -39 110 53 c105
50 210 94 214 89 1 -1 9 -24 18 -50 21 -64 20 -122 -4 -176 -11 -24 -18 -46
-15 -49 2 -3 18 10 34 27 44 48 58 119 37 201 -17 71 -126 297 -205 429 -28
47 -48 88 -44 91 5 4 42 19 83 35 41 15 124 52 183 83 59 30 110 52 113 49 3
-3 8 -33 11 -66 8 -89 -10 -143 -66 -193 -37 -32 -41 -39 -21 -33 96 28 146
141 122 272 l-9 52 58 46 c85 67 79 86 -11 40 -27 -14 -53 -25 -57 -25 -5 0
-17 23 -27 51 -10 29 -49 119 -87 201 -69 146 -131 316 -144 394 -6 35 -1 29
46 -52 29 -51 108 -170 176 -265 194 -271 258 -420 257 -594 -1 -101 -18 -162
-66 -238 -31 -48 -31 -70 0 -51 29 17 101 132 117 186 19 67 19 217 0 293 -19
73 -71 186 -122 263 -21 31 -94 127 -163 213 -255 320 -296 431 -270 747 23
286 13 381 -55 530 -101 219 -280 365 -495 407 -47 9 -95 18 -107 21 -13 2
-23 1 -23 -4z"/>
<path d="M2120 3866 c0 -2 16 -24 37 -48 50 -60 108 -188 128 -283 13 -66 16
-135 13 -420 -3 -374 0 -400 61 -530 28 -59 108 -171 117 -162 3 2 -9 26 -25
53 -49 80 -73 167 -79 287 -5 112 16 437 28 437 14 0 181 -454 267 -725 45
-145 45 -144 50 -122 6 22 -37 228 -83 407 -49 187 -154 500 -203 605 -23 48
-41 97 -41 108 0 77 -73 250 -133 316 -39 43 -137 98 -137 77z"/>
<path d="M4222 3793 c-18 -7 -43 -59 -37 -77 16 -52 16 -52 30 -18 16 36 43
42 68 14 36 -40 11 -97 -36 -84 -14 3 -18 1 -15 -9 6 -17 31 -23 61 -15 42 10
71 97 51 151 -13 32 -83 54 -122 38z"/>
<path d="M2700 3335 c0 -25 100 -206 151 -274 105 -139 235 -226 380 -252 149
-26 305 36 364 145 31 57 9 64 -61 18 -87 -58 -149 -75 -248 -70 -154 8 -273
85 -449 291 -105 123 -137 156 -137 142z"/>
<path d="M1340 3315 c-64 -18 -116 -61 -99 -81 21 -26 78 -27 200 -4 180 34
301 18 411 -55 57 -38 61 -20 8 27 -84 76 -203 116 -365 123 -72 4 -115 1
-155 -10z"/>
<path d="M4165 3160 c-42 -44 -118 -64 -212 -56 -44 4 -73 3 -73 -3 0 -5 14
-21 31 -35 26 -22 40 -26 97 -26 108 1 198 60 190 124 l-3 28 -30 -32z"/>
<path d="M3715 3065 c-37 -73 -117 -160 -188 -206 -184 -119 -399 -113 -578
16 -27 19 -49 31 -49 25 0 -23 120 -124 185 -156 94 -46 176 -60 269 -45 201
33 361 189 399 389 10 48 -7 39 -38 -23z"/>
<path d="M1239 3081 c45 -40 87 -59 157 -72 40 -7 66 -19 85 -39 32 -32 77
-46 93 -30 6 6 11 23 12 38 l1 27 96 0 c108 0 118 9 41 39 -38 15 -90 21 -234
27 -102 4 -198 12 -215 17 -16 6 -39 13 -50 17 -13 4 -8 -4 14 -24z"/>
<path d="M1094 2888 c-21 -67 -53 -131 -104 -209 -51 -79 -55 -132 -12 -171
45 -43 66 -48 181 -48 91 0 111 3 111 15 0 26 -37 35 -144 35 -104 0 -150 10
-160 36 -3 7 22 52 55 101 33 48 66 111 74 138 15 57 30 155 22 155 -3 0 -13
-24 -23 -52z"/>
<path d="M4942 2848 c-11 -13 -23 -34 -27 -48 -8 -33 10 -80 30 -80 18 0 18
-1 4 39 -34 96 78 138 117 44 19 -44 13 -98 -17 -159 -41 -86 -109 -80 -215
18 -70 66 -80 61 -34 -18 49 -86 121 -134 200 -134 50 0 83 29 99 86 22 80 5
195 -36 244 -32 38 -88 42 -121 8z"/>
<path d="M1112 2288 c-13 -13 -16 -66 -4 -85 11 -17 89 -50 139 -58 50 -8 142
9 198 37 94 47 169 106 98 76 -53 -22 -209 -14 -316 15 -116 32 -100 30 -115
15z"/>
</g>
</svg>
