<svg height="256px" viewBox="0 0 512 512" width="256px" xmlns="http://www.w3.org/2000/svg"><g id="Beauty_Curl_Hair" data-name="Beauty Curl Hair"><g id="Filled"><path d="m456 384v-224l-11.886-19.191c-20.22-23.24-46.759-45.776-78.857-66.97a198.169 198.169 0 0 0 -218.493-.013c-32.119 21.207-58.658 43.743-78.878 66.983l-11.886 19.191v224z" fill="#ffd740"/><path d="m365.257 73.839a198.4 198.4 0 0 0 -43.648-21.678 168 168 0 0 1 -265.609 201.38v130.459h400v-224l-11.886-19.191c-20.22-23.24-46.759-45.776-78.857-66.97z" fill="#ffc400"/><path d="m389.57 237.98c-40.47-54.1-133.57-85.98-133.57-85.98s-93.1 31.88-133.57 85.98l-18.43 31.058v98.9c0 47.41 48.49 89.76 90.7 117.63a111.173 111.173 0 0 0 122.6 0c42.21-27.868 90.7-70.218 90.7-117.628v-98.9z" fill="#ffdfd4"/><path d="m408 367.94v-62.721c-41.27 89.027-131.418 150.781-236 150.781q-8.625 0-17.108-.573a361.162 361.162 0 0 0 39.808 30.143 111.173 111.173 0 0 0 122.6 0c42.21-27.87 90.7-70.22 90.7-117.63z" fill="#f9d4c7"/><path d="m256 152s-93.1 31.88-133.57 85.98l-18.43 31.058v15.6a202.62 202.62 0 0 1 304 0v-15.6l-18.43-31.058c-40.47-54.1-133.57-85.98-133.57-85.98z" fill="#f9d4c7"/><path d="m266.909 408c-4.35 0-8.243 4.67-10.909 8-2.666-3.33-6.559-8-10.909-8-8.033 0-29.091 16-29.091 16 0 8.837 7.273 32 40 32s40-23.163 40-32c0 0-21.058-16-29.091-16z" fill="#e56161"/><path d="m312 16a16 16 0 0 1 16 16v32a16 16 0 0 1 -16 16h-112a16 16 0 0 1 -16-16v-32a16 16 0 0 1 16-16z" fill="#ce93d8"/><circle cx="56" cy="280" fill="#ce93d8" r="48"/><circle cx="56" cy="280" fill="#ffd740" r="16"/><circle cx="56" cy="376" fill="#ba68c8" r="48"/><circle cx="56" cy="376" fill="#ffd740" r="16"/><circle cx="456" cy="280" fill="#ce93d8" r="48"/><circle cx="456" cy="280" fill="#ffd740" r="16"/><circle cx="456" cy="376" fill="#ba68c8" r="48"/><circle cx="456" cy="376" fill="#ffd740" r="16"/><path d="m208 96 13.611-74.862a16 16 0 0 1 15.742-13.138h37.294a16 16 0 0 1 15.742 13.138l13.611 74.862z" fill="#ffd740"/><path d="m355.312 117.492a16 16 0 0 1 0-22.626l22.625-22.63a16 16 0 0 1 22.629 0l67.884 67.884 11.315 11.315a16 16 0 0 1 0 22.629l-22.63 22.625a16 16 0 0 1 -22.626 0z" fill="#ce93d8"/><path d="m360.971 134.461 39.6-39.6a24 24 0 0 1 33.941 0l22.627 22.627a24 24 0 0 1 0 33.941l-39.6 39.6z" fill="#ffc400"/><path d="m32.235 151.435a16 16 0 0 0 0 22.629l22.633 22.627a16 16 0 0 0 22.623 0l79.2-79.2a16 16 0 0 0 0-22.623l-22.627-22.632a16 16 0 0 0 -22.629 0z" fill="#ce93d8"/><path d="m151.029 134.461-39.6-39.6a24 24 0 0 0 -33.941 0l-22.625 22.629a24 24 0 0 0 0 33.941l39.6 39.6z" fill="#ffd740"/><g fill="#ffe7a4"><circle cx="232" cy="32" r="8"/><circle cx="408" cy="104" r="8"/><circle cx="96" cy="104" r="8"/></g><circle cx="144" cy="384" fill="#fff5f2" r="16"/><circle cx="368" cy="384" fill="#fff5f2" r="16"/></g><g id="Outline"><path d="m154.343 349.657a8 8 0 0 0 11.314 0l14.759-14.76a62.355 62.355 0 0 0 11.584 1.103c18.772 0 28.6-9.285 29.657-10.343l-11.314-11.314.092-.09c-.251.235-6.286 5.747-18.435 5.747-20.21 0-34.229-13.544-34.343-13.657a8 8 0 0 0 -11.314 0l-16 16a8 8 0 0 0 11.314 11.314l10.888-10.888a73.6 73.6 0 0 0 10.884 6.489l-9.086 9.085a8 8 0 0 0 0 11.314z"/><path d="m256 404.346a17.155 17.155 0 0 0 -10.909-4.346c-9.683 0-26.954 12.329-33.931 17.63a8 8 0 0 0 -3.16 6.37c0 15.465 13.031 40 48 40s48-24.535 48-40a8 8 0 0 0 -3.16-6.37c-6.977-5.3-24.248-17.63-33.931-17.63a17.155 17.155 0 0 0 -10.909 4.346zm31.433 23.282c-1.621 6.709-7.828 20.372-31.433 20.372s-29.812-13.663-31.433-20.372c8.509-6.07 17.321-11.132 20.312-11.6.958.456 2.6 2.127 4.876 4.974a8 8 0 0 0 12.49 0c2.265-2.83 3.9-4.5 4.858-4.965 3.126.532 11.882 5.563 20.33 11.591z"/><path d="m139.578 279.155a68.143 68.143 0 0 1 29.847-7.155c12.21 1.493 33.7 6.438 40.918 13.656a8 8 0 1 0 11.314-11.314c-13.574-13.573-47.063-17.846-50.837-18.289a8.047 8.047 0 0 0 -.931-.054 84.206 84.206 0 0 0 -37.467 8.845 8 8 0 0 0 7.156 14.31z"/><path d="m370.343 333.657a8 8 0 0 0 11.314-11.314l-16-16a8.032 8.032 0 0 0 -11.289-.024c-.139.137-14.158 13.681-34.368 13.681-12.149 0-18.184-5.512-18.435-5.747l.092.09-11.314 11.314c1.057 1.058 10.885 10.343 29.657 10.343a62.355 62.355 0 0 0 11.584-1.1l14.759 14.76a8 8 0 0 0 11.314-11.314l-9.086-9.085a73.6 73.6 0 0 0 10.884-6.489z"/><path d="m379.578 264.845a84.206 84.206 0 0 0 -37.467-8.845 8.047 8.047 0 0 0 -.931.054c-3.774.443-37.263 4.716-50.837 18.289a8 8 0 0 0 11.314 11.314c7.194-7.194 28.7-12.151 40.921-13.656a68.141 68.141 0 0 1 29.844 7.154 8 8 0 1 0 7.156-14.31z"/><path d="m32 280a24 24 0 1 0 24-24 24.027 24.027 0 0 0 -24 24zm32 0a8 8 0 1 1 -8-8 8.009 8.009 0 0 1 8 8z"/><path d="m56 352a24 24 0 1 0 24 24 24.027 24.027 0 0 0 -24-24zm0 32a8 8 0 1 1 8-8 8.009 8.009 0 0 1 -8 8z"/><path d="m456 304a24 24 0 1 0 -24-24 24.027 24.027 0 0 0 24 24zm0-32a8 8 0 1 1 -8 8 8.009 8.009 0 0 1 8-8z"/><path d="m484.81 328a55.981 55.981 0 0 0 -20.81-103.419v-23.445l21.42-21.415a24 24 0 0 0 0-33.943l-11.315-11.315a8.023 8.023 0 0 0 -1.976-1.446 31.771 31.771 0 0 0 -9.337-21.184l-22.625-22.627a31.771 31.771 0 0 0 -21.184-9.337 8.023 8.023 0 0 0 -1.446-1.976l-11.315-11.315a24 24 0 0 0 -33.943 0l-1.574 1.574a199.524 199.524 0 0 0 -34.705-19.488v-16.664a24.028 24.028 0 0 0 -24-24h-16a7.975 7.975 0 0 0 -2.968.575 23.973 23.973 0 0 0 -18.385-8.575h-37.294a23.973 23.973 0 0 0 -18.385 8.575 7.975 7.975 0 0 0 -2.968-.575h-16a24.028 24.028 0 0 0 -24 24v16.664a199.135 199.135 0 0 0 -34.7 19.494l-1.578-1.578a23.841 23.841 0 0 0 -16.971-7.031 23.843 23.843 0 0 0 -16.971 7.029l-11.317 11.315a8.023 8.023 0 0 0 -1.446 1.976 31.771 31.771 0 0 0 -21.184 9.337l-22.627 22.627a31.771 31.771 0 0 0 -9.337 21.184 8.023 8.023 0 0 0 -1.976 1.446l-11.315 11.315a24 24 0 0 0 0 33.943l21.422 21.416v23.444a55.981 55.981 0 0 0 -20.81 103.419 56 56 0 1 0 57.62 0 55.981 55.981 0 0 0 -20.81-103.419v-15.321c.726.066 1.453.1 2.181.1a23.93 23.93 0 0 0 16.967-7.013l5.662-5.66a8 8 0 0 0 11.308-11.318l-39.6-39.6a16 16 0 0 1 0-22.628l22.629-22.621a16 16 0 0 1 22.628 0l39.6 39.6a8 8 0 0 0 11.318-11.308l5.66-5.662a24.03 24.03 0 0 0 0-33.936l-9.538-9.539a183.148 183.148 0 0 1 23.295-13.466 24.03 24.03 0 0 0 23.89 21.791h1.323l-1.194 6.569a8 8 0 0 0 15.742 2.862l13.611-74.862a8 8 0 0 1 7.871-6.569h18.647v40a8 8 0 0 0 16 0v-40h2.647a8 8 0 0 1 7.871 6.569l13.611 74.862a8 8 0 1 0 15.742-2.862l-1.194-6.569h1.323a24.03 24.03 0 0 0 23.894-21.794 183.516 183.516 0 0 1 23.3 13.464l-9.539 9.54a24.028 24.028 0 0 0 0 33.939l5.656 5.657a8 8 0 0 0 11.315 11.312l5.573-5.573c.028-.027.059-.05.087-.078s.051-.059.078-.088l33.86-33.859a16 16 0 0 1 22.628 0l9.657 9.657-20.167 20.166a8 8 0 0 0 11.314 11.314l20.166-20.167 1.657 1.657a16 16 0 0 1 0 22.628l-39.6 39.6a8 8 0 0 0 11.312 11.315l5.657 5.656a23.917 23.917 0 0 0 16.97 7.018c.727 0 1.454-.038 2.179-.1v15.322a55.981 55.981 0 0 0 -20.807 103.414 56 56 0 1 0 57.62 0zm-388.81 48a40 40 0 1 1 -40-40 40.045 40.045 0 0 1 40 40zm0-96a40 40 0 1 1 -40-40 40.045 40.045 0 0 1 40 40zm-18.5-94.622-5.659 5.656a8.01 8.01 0 0 1 -11.312 0l-22.636-22.628a8 8 0 0 1 0-11.314l6.37-6.371a32.18 32.18 0 0 0 4.944 6.367zm73.538-73.541-5.656 5.659-28.29-28.29a32.18 32.18 0 0 0 -6.367-4.944l6.371-6.37a7.948 7.948 0 0 1 5.657-2.343 7.944 7.944 0 0 1 5.657 2.344l6.278 6.279c.032.033.065.065.1.1l16.252 16.256a8.009 8.009 0 0 1 -.006 11.309zm53.194-39.837h-4.232a8.009 8.009 0 0 1 -8-8v-32a8.009 8.009 0 0 1 8-8h12.96zm115.768-17.95v9.95a8.009 8.009 0 0 1 -8 8h-4.232l-8.728-48h12.96a8.009 8.009 0 0 1 8 8zm74.912 35.156-28.286 28.286-5.657-5.656a8.012 8.012 0 0 1 0-11.314l22.626-22.629a8 8 0 0 1 11.314 0l6.371 6.37a32.18 32.18 0 0 0 -6.368 4.943zm45.253 101.825-5.657-5.657 28.286-28.286a32.18 32.18 0 0 0 4.944-6.367l6.37 6.371a8 8 0 0 1 0 11.314l-22.629 22.625a8.009 8.009 0 0 1 -11.314 0zm-24.165 88.969a40 40 0 1 1 40 40 40.045 40.045 0 0 1 -40-40zm40 136a40 40 0 1 1 40-40 40.045 40.045 0 0 1 -40 40z"/><path d="m456 352a24 24 0 1 0 24 24 24.027 24.027 0 0 0 -24-24zm0 32a8 8 0 1 1 8-8 8.009 8.009 0 0 1 -8 8z"/><path d="m339.97 165.28a8.016 8.016 0 1 0 -3.65-4.92 8.009 8.009 0 0 0 3.65 4.92z"/><path d="m263.78 129.3a430.575 430.575 0 0 1 48.63 20.91 7.859 7.859 0 0 0 3.58.85 8 8 0 0 0 3.58-15.16 448.343 448.343 0 0 0 -50.61-21.74 7.917 7.917 0 0 0 -2.59-.44 8 8 0 0 0 -2.59 15.58z"/><path d="m163.173 169.307a7.963 7.963 0 0 0 4.2-1.2c9.439-5.839 19.659-11.548 30.376-16.971a8 8 0 0 0 -7.223-14.277c-11.123 5.628-21.744 11.563-31.57 17.641a8 8 0 0 0 4.216 14.8z"/><path d="m393.938 413.649a8 8 0 0 0 -11.139 1.983c-14.694 21.058-38.214 42.342-69.909 63.263a103.062 103.062 0 0 1 -113.783 0c-31.692-20.919-55.212-42.2-69.906-63.261a8 8 0 1 0 -13.121 9.156c15.857 22.724 40.825 45.42 74.211 67.457a119.039 119.039 0 0 0 131.416 0c33.388-22.039 58.356-44.735 74.213-67.459a8 8 0 0 0 -1.982-11.139z"/><path d="m117.638 244.386a8 8 0 0 0 11.2-1.614c22.588-30.191 62.81-53.425 92.574-67.6a8 8 0 1 0 -6.879-14.445c-31.391 14.948-73.962 39.654-98.507 72.46a8 8 0 0 0 1.612 11.199z"/><path d="m128 168.32a8 8 0 0 0 5.541-13.771l-12-11.52a8 8 0 0 0 -11.08 11.542l12 11.52a7.972 7.972 0 0 0 5.539 2.229z"/><circle cx="96" cy="128" r="8"/><circle cx="400" cy="160" r="8"/><path d="m248 96v-16a8 8 0 0 0 -16 0v16a8 8 0 0 0 16 0z"/><path d="m258.53 144.411c-20.113-6.7-27.052-19.383-27.4-20.049a8 8 0 0 0 -14.28 7.216c.387.774 9.79 19.067 36.563 27.99.908.311 91.211 31.677 129.756 83.2a8 8 0 0 0 12.812-9.584c-41.481-55.435-133.493-87.418-137.451-88.773z"/></g></g></svg>