<svg height="512pt" viewBox="-9 0 512 512" width="512pt" xmlns="http://www.w3.org/2000/svg"><path d="m16.730469 234.253906v53.789063c0 7.574219-3.007813 13.15625-8.363281 18.511719-11.15625 11.15625-11.15625 29.238281 0 40.394531l10.265624 10.265625c16.164063 16.164062 16.164063 42.371094 0 58.535156-16.164062 16.164062-16.164062 42.371094 0 58.535156 24.148438 24.148438 56.898438 37.714844 91.046876 37.714844h130.03125v-277.746094zm0 0" fill="#ffb357"/><path d="m467.460938 415.75c-16.164063-16.164062-16.164063-42.371094 0-58.535156l10.265624-10.265625c11.15625-11.15625 11.15625-29.238281 0-40.394531-5.355468-5.355469-8.363281-10.9375-8.363281-18.511719v-74.085938c0-5.3125-.171875-10.582031-.507812-15.808593-5.339844-83.183594-75.160157-147.566407-158.511719-147.566407h-70.632812v461.417969h136.699218c34.152344 0 66.902344-13.566406 91.050782-37.714844 16.164062-16.164062 16.164062-42.371094 0-58.535156zm0 0" fill="#ffce71"/><path d="m243.046875 400.363281c-53.164063 0-96.414063 43.628907-96.414063 97.257813v14.378906h192.824219v-14.378906c0-53.628906-43.25-97.257813-96.410156-97.257813zm0 0" fill="#ff8e9e"/><path d="m146.632812 497.621094v14.378906h38.3125v-14.378906c0-17.613282 4.664063-34.152344 12.816407-48.417969h-38.308594c-8.152344 14.269531-12.820313 30.804687-12.820313 48.417969zm0 0" fill="#ea5b70"/><path d="m462.257812 233.929688c0 25.222656-20.445312 45.667968-45.667968 45.667968s-45.671875-20.445312-45.671875-45.667968c0-25.222657 20.449219-45.671876 45.671875-45.671876s45.667968 20.449219 45.667968 45.671876zm0 0" fill="#ffbf9d"/><path d="m446.878906 305.019531c0 14.207031-11.519531 25.722657-25.722656 25.722657-14.207031 0-25.722656-11.515626-25.722656-25.722657 0-14.203125 11.515625-25.71875 25.722656-25.71875 14.203125 0 25.722656 11.515625 25.722656 25.71875zm0 0" fill="#efedee"/><path d="m262.191406 402.296875c-6.1875-1.261719-12.589844-1.933594-19.144531-1.933594-35.699219 0-66.929687 19.675781-83.59375 48.84375l30.683594 16.976563c10.972656-32.304688 38.34375-57 72.054687-63.886719zm0 0" fill="#ffbf9d"/><path d="m262.191406 402.296875c-33.714844 6.886719-61.082031 31.582031-72.054687 63.886719l13.597656 7.527344c24.460937 13.535156 54.164063 13.535156 78.621094 0l44.285156-24.503907c-13.605469-23.8125-36.921875-41.292969-64.449219-46.910156zm0 0" fill="#ffd4bd"/><path d="m294.542969 410.289062c76.382812-22.265624 132.195312-92.792968 132.195312-176.363281 0-101.449219-82.242187-183.691406-183.691406-183.691406s-183.691406 82.242187-183.691406 183.695313c0 83.570312 55.8125 154.09375 132.195312 176.359374 16.339844 4.765626 33.617188 7.328126 51.496094 7.328126 17.875 0 35.152344-2.5625 51.496094-7.328126zm0 0" fill="#ffd4bd"/><path d="m120.246094 233.929688c0-91.078126 66.289062-166.660157 153.246094-181.167969-9.90625-1.652344-20.074219-2.523438-30.449219-2.523438-101.445313-.003906-183.6875 82.238281-183.6875 183.691407 0 101.445312 82.242187 183.6875 183.6875 183.6875 10.375 0 20.542969-.875 30.449219-2.527344-86.957032-14.507813-153.246094-90.085938-153.246094-181.160156zm0 0" fill="#ffbf9d"/><path d="m262.128906 42.136719 18.394532 55.992187c21.179687 58.347656 78.703124 95.371094 140.582031 90.488282v-85.050782zm0 0" fill="#ffce71"/><path d="m182.660156 298.371094h-10.148437c-4.203125 0-7.609375-3.410156-7.609375-7.613282 0-4.203124 3.40625-7.609374 7.609375-7.609374h10.148437c4.207032 0 7.613282 3.40625 7.613282 7.609374 0 4.203126-3.40625 7.613282-7.613282 7.613282zm0 0" fill="#ff8e9e"/><path d="m312.566406 298.371094h-10.148437c-4.207031 0-7.613281-3.410156-7.613281-7.613282 0-4.203124 3.40625-7.609374 7.613281-7.609374h10.148437c4.203125 0 7.609375 3.40625 7.609375 7.609374 0 4.203126-3.40625 7.613282-7.609375 7.613282zm0 0" fill="#ff8e9e"/><path d="m307.492188 277.058594c-4.207032 0-7.613282-3.40625-7.613282-7.613282v-10.148437c0-4.203125 3.40625-7.609375 7.613282-7.609375 4.203124 0 7.609374 3.40625 7.609374 7.609375v10.148437c0 4.207032-3.40625 7.613282-7.609374 7.613282zm0 0" fill="#313d40"/><path d="m243.046875 305.476562c-9.832031 0-18.898437-5.683593-23.105469-14.480468-1.8125-3.789063-.207031-8.335938 3.585938-10.148438 3.789062-1.8125 8.335937-.207031 10.148437 3.582032 1.691407 3.539062 5.367188 5.820312 9.371094 5.820312 4 0 7.679687-2.28125 9.371094-5.820312 1.8125-3.789063 6.355469-5.398438 10.148437-3.582032 3.792969 1.8125 5.398438 6.359375 3.585938 10.148438-4.207032 8.796875-13.273438 14.480468-23.105469 14.480468zm0 0" fill="#313d40"/><path d="m286.554688 11.800781c-14.585938-2.847656-29.667969-4.289062-45.113282-4.183593-124.648437.863281-224.710937 103.40625-224.710937 228.058593v52.039063h84.234375c22.023437 0 43.3125-3.160156 63.445312-9.027344 94.105469-27.433594 162.871094-114.324219 162.871094-217.285156 0-.132813 0-.265625 0-.398438-.042969-23.976562-17.195312-44.617187-40.726562-49.203125zm0 0" fill="#ffce71"/><path d="m259.386719 8.203125c-5.921875-.425781-11.90625-.628906-17.945313-.585937-124.648437.863281-224.710937 103.40625-224.710937 228.058593v52.039063h84.234375c3.832031 0 7.640625-.101563 11.429687-.292969-17.082031-27.886719-26.933593-60.683594-26.933593-95.785156 0-98.175781 77.019531-178.359375 173.925781-183.433594zm0 0" fill="#ffb357"/><g fill="#b9f0ff"><path d="m145.328125 128.277344c-4.203125 0-7.613281 3.410156-7.613281 7.613281v6.078125c0 4.203125 3.410156 7.609375 7.613281 7.609375s7.613281-3.40625 7.613281-7.609375v-6.078125c0-4.203125-3.410156-7.613281-7.613281-7.613281zm0 0"/><path d="m129.101562 150.582031h-6.078124c-4.203126 0-7.613282 3.410157-7.613282 7.613281 0 4.203126 3.410156 7.613282 7.613282 7.613282h6.078124c4.203126 0 7.609376-3.410156 7.609376-7.613282 0-4.203124-3.40625-7.613281-7.609376-7.613281zm0 0"/><path d="m167.632812 150.582031h-6.078124c-4.203126 0-7.613282 3.410157-7.613282 7.613281 0 4.203126 3.410156 7.613282 7.613282 7.613282h6.078124c4.203126 0 7.613282-3.410156 7.613282-7.613282 0-4.203124-3.40625-7.613281-7.613282-7.613281zm0 0"/><path d="m145.328125 166.8125c-4.203125 0-7.613281 3.40625-7.613281 7.609375v6.082031c0 4.203125 3.410156 7.609375 7.613281 7.609375s7.613281-3.40625 7.613281-7.609375v-6.082031c0-4.203125-3.410156-7.609375-7.613281-7.609375zm0 0"/><path d="m463.785156 0c-4.203125 0-7.609375 3.40625-7.609375 7.613281v6.078125c0 4.203125 3.40625 7.609375 7.609375 7.609375 4.207032 0 7.613282-3.40625 7.613282-7.609375v-6.078125c0-4.207031-3.40625-7.613281-7.613282-7.613281zm0 0"/><path d="m447.558594 22.304688h-6.078125c-4.203125 0-7.609375 3.410156-7.609375 7.613281s3.40625 7.609375 7.609375 7.609375h6.078125c4.207031 0 7.613281-3.40625 7.613281-7.609375s-3.40625-7.613281-7.613281-7.613281zm0 0"/><path d="m486.09375 22.304688h-6.078125c-4.207031 0-7.613281 3.410156-7.613281 7.613281s3.40625 7.609375 7.613281 7.609375h6.078125c4.203125 0 7.609375-3.40625 7.609375-7.609375s-3.40625-7.613281-7.609375-7.613281zm0 0"/><path d="m463.785156 38.535156c-4.203125 0-7.609375 3.40625-7.609375 7.609375v6.078125c0 4.203125 3.40625 7.613282 7.609375 7.613282 4.207032 0 7.613282-3.410157 7.613282-7.613282v-6.078125c0-4.203125-3.40625-7.609375-7.613282-7.609375zm0 0"/><path d="m90.523438 402.292969c-4.203126 0-7.609376 3.40625-7.609376 7.609375v6.078125c0 4.203125 3.40625 7.613281 7.609376 7.613281 4.207031 0 7.613281-3.410156 7.613281-7.613281v-6.078125c0-4.203125-3.40625-7.609375-7.613281-7.609375zm0 0"/><path d="m74.296875 424.597656h-6.078125c-4.203125 0-7.609375 3.40625-7.609375 7.613282 0 4.203124 3.40625 7.609374 7.609375 7.609374h6.078125c4.207031 0 7.613281-3.40625 7.613281-7.609374 0-4.207032-3.40625-7.613282-7.613281-7.613282zm0 0"/><path d="m112.832031 424.597656h-6.078125c-4.207031 0-7.613281 3.40625-7.613281 7.613282 0 4.203124 3.40625 7.609374 7.613281 7.609374h6.078125c4.203125 0 7.609375-3.40625 7.609375-7.609374 0-4.207032-3.40625-7.613282-7.609375-7.613282zm0 0"/><path d="m90.523438 440.824219c-4.203126 0-7.609376 3.410156-7.609376 7.613281v6.078125c0 4.203125 3.40625 7.613281 7.609376 7.613281 4.207031 0 7.613281-3.410156 7.613281-7.613281v-6.078125c0-4.203125-3.40625-7.613281-7.613281-7.613281zm0 0"/></g></svg>