<svg height="256pt" viewBox="0 0 512 512" width="256pt" xmlns="http://www.w3.org/2000/svg"><g id="Filled_outline" data-name="Filled outline"><path d="m136 360v40l88-40v-40z" fill="#fec093"/><path d="m160 216h192a48 48 0 0 1 48 48v112l8 112h-48l-6.836-82.033q-1.164-13.96-1.164-27.982v-73.985h-16l-21.228 56.608a43.537 43.537 0 0 0 -2.772 15.292 43.54 43.54 0 0 0 10.481 28.333l11.487 13.4a108.126 108.126 0 0 1 26.032 70.367h-208a108.126 108.126 0 0 1 26.032-70.37l11.168-13.024a44.38 44.38 0 0 0 10.679-28.214 39.379 39.379 0 0 0 -3.18-16.106l-20.699-56.286h-16v72a24 24 0 0 1 -24 24 24 24 0 0 1 -24-24v-112a48 48 0 0 1 48-48z" fill="#fec9a3"/><path d="m360 488h-208a108.16 108.16 0 0 1 7.76-40h192.48a108.3 108.3 0 0 1 6.35 23.05z" fill="#e0e0de"/><path d="m360 488h-110.11a256.362 256.362 0 0 0 44.45-40h57.9a108.3 108.3 0 0 1 6.35 23.05z" fill="#d6d6d4"/><path d="m336 203.42a389.445 389.445 0 0 1 -5.9 67.54 388.4 388.4 0 0 1 -17.54 65.49l-8.56 23.55h-96l-4.7-12.93-3.86-10.62a389.159 389.159 0 0 1 -23.44-133.03q0-19.41 1.93-38.74l7.7-77a70.721 70.721 0 0 1 140.74 0l3.11 31.14 4.59 45.86q1.935 19.305 1.93 38.74z" fill="#ffb531"/><g fill="#ffa912"><path d="m264 216a24 24 0 0 1 -24-24 48 48 0 0 1 9.6-28.8l14.4-19.2 14.4 19.2a48 48 0 0 1 9.6 28.8 24 24 0 0 1 -24 24z"/><path d="m336 203.42a389.445 389.445 0 0 1 -5.9 67.54 388.4 388.4 0 0 1 -17.54 65.49l-8.56 23.55h-96l-4.7-12.93c45.83-38.68 101.94-108.54 126.18-228.25l4.59 45.86q1.935 19.305 1.93 38.74z"/><path d="m272 112v-16l-24-8h-62.4l-3.2 32h65.6z"/></g><path d="m256 96-24 8h-128v-32h128l24 8z" fill="#e0e0de"/><path d="m72 112h-24a24 24 0 0 1 -24-24 24 24 0 0 1 24-24h24z" fill="#e07f7f"/><path d="m72 40h56v96h-56z" fill="#f59898"/><path d="m72 104h56v32h-56z" fill="#ec8c8c"/><path d="m128 72h16v32h-16z" fill="#d6d6d4"/><path d="m256 200a24 24 0 0 1 -24-24 48 48 0 0 1 9.6-28.8l14.4-19.2 14.4 19.2a48 48 0 0 1 9.6 28.8 24 24 0 0 1 -24 24z" fill="#60d1e0"/><path d="m415.979 487.43-7.979-111.715v-111.715a56.063 56.063 0 0 0 -56-56h-8.05c.018-1.528.05-3.054.05-4.584 0-13.149-.663-26.45-1.972-39.532l-7.7-77a78.718 78.718 0 0 0 -150.804-22.884h-47.524v-24a8 8 0 0 0 -8-8h-56a8 8 0 0 0 -8 8v16h-16a32 32 0 0 0 0 64h16v16a8 8 0 0 0 8 8h56a8 8 0 0 0 8-8v-24h39.16l-5.188 51.884c-1.309 13.082-1.972 26.383-1.972 39.533 0 1.529.032 3.055.05 4.583h-8.05a56.063 56.063 0 0 0 -56 56v112a31.98 31.98 0 0 0 54.8 22.423l32.159-14.618a36.442 36.442 0 0 1 -7.839 15.595l-11.163 13.023a116.209 116.209 0 0 0 -27.957 75.577 8 8 0 0 0 8 8h256a8 8 0 0 0 7.979-8.57zm-70.788-80.8 1.154 13.837q-2.963-4.145-6.3-8.045l-11.487-13.4a35.532 35.532 0 0 1 -6.293-35.6l19.279-51.422h2.456v65.985c0 9.515.4 19.155 1.191 28.646zm-297.191-302.63a16 16 0 0 1 0-32h16v32zm72 24h-40v-80h40zm16-48h94.7l17.3 5.766v4.468l-17.3 5.766h-94.7zm96 32a8 8 0 0 0 2.53-.411l24-8a8 8 0 0 0 5.47-7.589v-16a8 8 0 0 0 -5.47-7.589l-24-8a8 8 0 0 0 -2.53-.411h-30.683a62.721 62.721 0 0 1 117.091 24.478l7.7 77c1.255 12.553 1.892 25.322 1.892 37.939a380.16 380.16 0 0 1 -22.957 130.3l-6.643 18.283h-84.8l-6.647-18.279a380.161 380.161 0 0 1 -22.953-130.305c0-12.62.637-25.385 1.892-37.94l5.347-53.476zm-96 280a16.019 16.019 0 0 1 -16-16v-112a40.045 40.045 0 0 1 40-40h8.551a395.412 395.412 0 0 0 10.539 72.644 7.966 7.966 0 0 0 -3.09-.644h-16a8 8 0 0 0 -8 8v72a16.019 16.019 0 0 1 -16 16zm41.842-59.807-9.842 4.474v-24.667h2.418zm-9.842 43.807v-21.758l15.378-6.99 5.808 15.8c.048.131.1.261.155.39a31.818 31.818 0 0 1 1.116 3.022l-22.474 10.216c.005-.23.017-.454.017-.68zm16.1 46.836 11.164-13.024a52.484 52.484 0 0 0 12.6-33.3 47.329 47.329 0 0 0 -.661-8.573c.262.026.521.061.788.061h40v56h16v-56h40c.212 0 .417-.032.626-.049a51.394 51.394 0 0 0 11.781 41.484l11.488 13.4a100.043 100.043 0 0 1 11.847 17.165h-167.457a100.031 100.031 0 0 1 11.829-17.164zm-23.78 57.164a100.155 100.155 0 0 1 4.951-24h181.46a100.1 100.1 0 0 1 3.835 15.128l.74 8.872zm207.4 0q-.378-5.471-1.268-10.86l-5.315-63.84c-.754-9.052-1.137-18.243-1.137-27.318v-73.982a8 8 0 0 0 -8-8h-16a7.948 7.948 0 0 0 -3.09.644 395.425 395.425 0 0 0 10.539-72.644h8.551a40.045 40.045 0 0 1 40 40v112q0 .285.021.57l7.387 103.43z"/><path d="m256 208a32.036 32.036 0 0 0 32-32 56.358 56.358 0 0 0 -11.2-33.6l-14.4-19.2a8 8 0 0 0 -12.8 0l-14.4 19.2a56.358 56.358 0 0 0 -11.2 33.6 32.036 32.036 0 0 0 32 32zm-8-56 8-10.667 8 10.667a40.249 40.249 0 0 1 8 24 16 16 0 0 1 -32 0 40.249 40.249 0 0 1 8-24z"/></g></svg>